<mxfile host="app.diagrams.net" modified="2023-11-18T18:18:15.297Z" agent="Mozilla/5.0 (Macintosh; Intel Mac OS X 10_15_7) AppleWebKit/537.36 (KHTML, like Gecko) Chrome/119.0.0.0 Safari/537.36" etag="FVgfnph_D8zOmkD9ryQH" version="21.6.8" type="device">
  <diagram name="Page-1" id="hVo5D5IlSA7uUQeh_sa1">
    <mxGraphModel dx="1026" dy="654" grid="1" gridSize="10" guides="1" tooltips="1" connect="1" arrows="1" fold="1" page="1" pageScale="1" pageWidth="850" pageHeight="1100" math="0" shadow="0">
      <root>
        <mxCell id="0" />
        <mxCell id="1" parent="0" />
        <mxCell id="-R4bEcD_zmkKEqSJjSrt-29" value="" style="edgeStyle=orthogonalEdgeStyle;rounded=0;orthogonalLoop=1;jettySize=auto;html=1;" edge="1" parent="1" source="-R4bEcD_zmkKEqSJjSrt-1" target="-R4bEcD_zmkKEqSJjSrt-15">
          <mxGeometry relative="1" as="geometry" />
        </mxCell>
        <mxCell id="-R4bEcD_zmkKEqSJjSrt-1" value="Build" style="rounded=1;whiteSpace=wrap;html=1;" vertex="1" parent="1">
          <mxGeometry x="387.75" y="352.5" width="144.5" height="45" as="geometry" />
        </mxCell>
        <mxCell id="-R4bEcD_zmkKEqSJjSrt-2" value="" style="shape=image;verticalLabelPosition=bottom;labelBackgroundColor=default;verticalAlign=top;aspect=fixed;imageAspect=0;image=data:image/svg+xml,PHN2ZyB4bWxuczp4bGluaz0iaHR0cDovL3d3dy53My5vcmcvMTk5OS94bGluayIgeG1sbnM9Imh0dHA6Ly93d3cudzMub3JnLzIwMDAvc3ZnIiB4bWw6c3BhY2U9InByZXNlcnZlIiB2aWV3Qm94PSIwIDAgMzg0MCAyMTYwIiBoZWlnaHQ9IjIxNjBweCIgd2lkdGg9IjM4NDBweCIgeT0iMHB4IiB4PSIwcHgiIGlkPSJMYXllcl8xIiB2ZXJzaW9uPSIxLjEiPiAgPGltYWdlIGhyZWY9ImRhdGE6aW1hZ2UvcG5nO2Jhc2U2NCxpVkJPUncwS0dnb0FBQUFOU1VoRVVnQUFEd0FBQUFod0FnTUFBQUR0MENQaEFBQUFCR2RCVFVFQUFMR1BDL3hoQlFBQUFDQmpTRkpOIEFBQjZKUUFBZ0lNQUFQbi9BQUNBNlFBQWRUQUFBT3BnQUFBNm1BQUFGMitTWDhWR0FBQUFDVkJNVkVWSGNFd0FBQUQvLy84VzFTK0IgQUFBQUFYUlNUbE1BUU9iWVpnQUFBQUZpUzBkRUFtWUxmR1FBQUFBSmNFaFpjd0FBQkM0QUFBUXVBUytDOXdFQUFBQUhkRWxOUlFmbSBEQndNQXd0bUV5UTJBQUJhdEVsRVFWUjQydTNkM1c3a3VwSmdZUnRvM1hjRHcvZGhBejMzYktEOC9xOHlVeit1U3RtU0dDUWpGQXhxIGZiZkhtU0lwTGl1bGRKMzk5Z1lBQUFBQUFBQUFBQUFBQUFBQUFBQUFBQUFBQUFBQUFBQUFBQUFBQUFBQUFBQUFBQUFBQUFBQUFBQUEgQUFBQUFBQUFBQUFBQUFBQUFBQUFBQUFBQUFBQUFBQUFBQUFBQUFBQUFBQUFBQUFBQUFBQUFBQUFBQUFBQUFBQUFBQUFBQUFBQUFBQSBBQUFBQUFBQUFBQUFBQUFBQUFBQUFBQUFBQUFBQUFBQUFBQUFBQUFBQUFBQUFBQUFBQUFBQUFBQUFBQUFBQUFBQUFBQXg5TEhDZStCIEFhallQcTc4OEI0ZWdITWZkZGw3akFBT0NmSWxZV0JPU2RndkNRUFRhY2lYNTFuQVhON2I4dVZ4RmpDUnhzc3ZGMkZnSHUyWDM5K0sgOThBQlZMNzU1V00wTUxQdWZQa1lEWGpyL2ZqTXgyakEzMmkvRkF6NDZiLzk1VVlZY0thUkx3a0RQcEpTdnhRTTNFK3YzdytlUmdNMyBVKzJYZ29GYmJicjk4aWthdUpGMnZ4UU0zRWUvWHdvRzdqTCs1eHNVRExneDZaZi9udzdnRmtiOVVqQndBN04rS1Jnd2x3d0Q1dXRnIHdOWm0yUzhQc2dCVE5nK2cveW5lRXdRV2xvejcvZUJUTkdCbXMrK1hnZ0VqMXArZmZ5dmUwd1RXZEV1L2ZKa0VtRWczQmN5SGFFRGYgZGxlL2ZKa0U2THV0WDI2REFYWHB4b0Q1RUEzbzJ1N3Nsdy9SZ0s1YisrVkpOS0FxM1J3d0g2SUJQZHZkL2ZJaEd0QnplNzg4aVFiVSAzSDhCNWhJTWFMbm5iNkM1QkFNV1BLNi9YSU1CSFQ3WFg2N0JnQXF2Qy9BSDN5VUJ3L3d1d0Z5Q2dXSEpNV0F1d2NDWXpiTmZubU1CIFkxejc1VytpZ1NISk9XQStSQU1EdlB2bE9SYlFiL1B1bDd0Z29Kdm5WMGlmaXZjaUFGRWw3M3AvOGw0RUlLZ1pMc0JjZ29GTzN1bisga2IzWEFZZ29lWmRMd1VDM09UNUEvMVM4bHdLSUozbDMrNC8zVWdEaHpITUI1c3Rnb0psM3REdlpleldBV0RidlpuZTRCQU5OdkpQOSBJbnV2QnhESlRIZkFQM0VKQmhvazcySy84bDRRSUpEWkxzQjhGd3cwU042OWZ1ZTlKRUFZODEyQXVRUURZc203MWlQZWl3SUVNZU1GIG1Fc3dJTFI1dDNyTWUxbUFFQ2J0bCsrQ0FRbnZVRTlsNzVVQjVyZDVkM3FLU3pCUTVaM3BoZXk5TnNEc051OUtMM0FKQmlxOEk3MlUgdlZjSG1OdWMzd0YvS3Q3TEE4eHQ4MjcwbXZmeUFIUHpMclFpZTY4UE1MUE51OUFLSG1NQkY3d0RyY3JlS3dUTWEvUHVzNHBMTUhBcSBlZmRaNTcxRXdMVG0vZzdwdCtLOVNNQ3N2T09rWUtCZmhBc3dBUU1ua25lYk10N0xCRXdweGdXWVN6QndhUE11VTRodmtvQUQzbUdLIFplK1ZBdWF6ZVhjcHhpVVkrQ1o1ZHlubnZWVEFkS0k4d3ZxcGVDOFdNSnZOdThvVzNvc0Z6Q1o1UjlraWU2OFdNSmRJbjZENURBMTgga2J5YmJPTzlYTUJjdkl0c2xMM1hDNWlKZDVBVURQU0xkUWY4VS9GZU1tQWV5YnZIZHQ1TEJzekR1OFlPMlh2TmdGbkUrd1ROSDBRRCBmMjNlTlJJdzBNODd4aTdaZTlXQU9VVDhCTTF6YU9DUDVOMWlIKzlsQStiZ1hXS243TDF1d0F3Mjd4STc4UmdMZUF2N0NaclAwTUJiIDFFZFlQeFh2cFFQOGJkNGRkdU16TkJEM0V6U1BzWURBRjJBdXdVRGtDekNQc2ZCNGNSOWgvVlM4bHcvd3RYazNPSVRQMEhnNDd3UUggWmUvMUF6ekYvZ1ROWjJnODNPWmQ0Q0ErUStQUnZBTWNscjFYRVBBVC9STTBuNkh4YUp0M2YrTzhseER3azd6ekkyQ2duM2Q5Q3JMMyBHZ0plTnUvNkZQQWNHbytWdk92VDRMMklnSlBOdXowVlhJTHhVTW03UFIzZXl3ajQ4QzVQU2ZaZVI4REQ1bDJlRWo1RDQ1R1NkM2xhIHZCY1M4TEJNd05sN0pZSDd4Zjg3NkUvRmV5bUIrMjNlM2FuaEpoZ1BsTHk3MCtPOWxNRHQxdmtFeldkb1BORG1YWjBpUGtQamNaSjMgZFpxOEZ4TzRtM2R6cXJMM2FnTDMycnliVThWbmFEeE04bTVPbC9keUFyZGE2Um4wVDhWN1FZRTdiZDdGYWZOZVVPQk95VHM0YmRsNyBSWUViZWZkR3dFQy8xVzZCdVFuR295VHYzdlI1THlsd0grL2FER1R2TlFYdXN0NG5hRDVENDBFMjc5b004TWRZZUl6a1hac0Y3MFVGIGJyTGlKMmcrUStNeE51L1dUUEFaR2crUnZGdXo0YjJzd0QyOFN6T1N2ZGNWdU1QbVhab1JQa1BqRVpKM2FWYThGeGE0ZzNkblpyTDMgeWdMMjF2d1M2YWZpdmJTQXZjMjdNelBjQk9NQmtuZG5kcnlYRnJEblhabWg3TDIyZ0xYTnV6SkRmSWJHOHBKM1paYThGeGV3NXQyWSBxZXk5dW9DdGRiOUUrcWw0THk5Z2EvTnV6QlEzd1ZqYzJnRnpFNHpGSmUvRWJHWHY5UVVzYmQ2RkdlTXpOSmFXdkF1ejVyM0FnQ1h2IHZzeGw3eFVHN0t6OUpkSlB4WHVKQVR1YmQxL211QW5Hd3BKM1gvYThseGl3NDEzWERiTDNHZ05XMXI4RjVpWVlDOXU4NjdvQk44RlkgVnZLdTZ3N2Vpd3hZOFc3ckZ0bDdsUUViVDdnRjVpWVl5M3BHd053RVkxR2JkMXYzOEY1bXdFYnlUb3VBZ1c2YmQxazNLZDRMRFZoSSAzbVhkeFh1aEFRdmVYZDBtZTY4MG9POFp6NkIvS3Q1TERlamJ2THU2RFY4a1lVSEp1NnY3ZUM4MW9NKzdxaHRsNzdVR3REM25GcGliIFlDeG84NjdxUnR3RVl6bkp1Nm83ZVM4Mm9PMVJBV2Z2MVFhVWVUZDFxK0s5Mm9BeTc2WUlHT2ozcElmUUJJemxKTyttN3VXOTNJQXUgNzZKdWxyM1hHOUQwckUvUWZJYkdZamJ2b203R24zSmdLY203cUx0NUx6aWd5YnVuMjJYdkZRZjBQTzBXbUp0Z0xHWHo3dWwyM0FSaiBJY203cC90NUx6bWd4N3NtQjlsN3pRRXR6N3NGNWlZWUMzbGl3TndFWXhtYmQwMGV2QmNkMEpLOFkvS1F2VmNkVU9MZEVnRUQvWjU0IEM4eFRMQ3hqODI3SkJVK3hzSWprM1pJUDcyVUhkSGlYNUNSN3J6dWc0Wm0zd053RVl4R2JkMGxPdUFuR0VwSjNTVjY4Rng3UTROMlIgbSt5OThzQzRwOTRDY3hPTUpSQXdFTmptM1pFYm5tSmhBY203SXovZVN3K004NjdJVWZaZWUyQ1lkMFdPaXZmYUE2TTI3NG9jY1JPTSA4SkozUlo2OEZ4OFlSY0JBWU40TnVjcmVxdytNZWU2ZmNmeFV2SmNmR0xONU4rU0twMWdJTG5rMzVNdDcrWUV4M2dVNXk5N3JEd3p4IExvaUFnWDdQZm9iRlV5d0V0M2tYNUl5bldBZ3RlUmZremZzRUFDTzgrM0dYdmM4QTBPL3B0OERjQkNPMHpic2ZkOXdFSXpBQzVpWVkgZ1NYdmZQeGw3M01BZFBPdVp3TForeHdBM2J6cm1VRDJQZ2RBTHg1Qzh4Z2FnVzNlOVV5QXg5QUlLM25YTXdQdmt3RDA4bTVuQ3RuNyBMQUNkdk51WlF2WStDMEFmbm1IOVZMeFBBOUJuODI1bkNqekZRbERKdTUwNWVKOEdvRS95VG1jTzNxY0I2T05kemlTeTkza0FlbXplIDVVeUNtMkNFbEx6TG1ZWDNpUUI2Sk85d1p1RjlJb0FlM3QxTUkzdWZDYUFkZjhieHFYaWZDcUFkQVgvaUtSWUNJdUJQQkl5QU51OXUgNXVGOUtvQjJ5VHViZVhpZkNxQ2RkelVUeWQ3bkFtam1YYzFFc3ZlNUFGcnhET3VmNG4weWdGYWJkelVUNFRFMHd0bThxNW1KOThrQSBXdlZ0OHVTZFdrM3VHbWIyUGh0QW0rWmI0TThYZWhkNjZlOW40Y2FDaS9mcEFOcDBCenp6WisvOGQ1QUVqTFcxWnZqeW5HZmE1OWN2IDAyc01tS2RZQ0taeGgrKzIrT1pkYXJYZjVpRjZudzZnVFdzZDVmWEZVMTZEZDlOckRUaDdudytneVZEQU14YWNkd01rWUN5dHVjQ3kgZjMxcklEZjMyenkvSWx3M1lBck5BZVl2YjVDOGk5MzcraFNxTldDZVlpR1U0WUFuK3o3NGJYQjRCSXhRMG5EQVU5MEdmNS9nK0RzQSA4Mm9PK1B0YmJON1YvbE8rajY3MUxiTDNHUUVhS0FROHoyM3dENFhCRmU4ekFqUm9qdVRnUGFiNUVKMFBCa2ZBV0ZoemU0Y1BlVm9qIE1WSTB4bGJlZ0RBMmxVam11QVpubFJueUdCcUJKSjJBWjdnR240eXNOV0FlUXlNUXJVd20rRGI0WkdETkh3Nnk5emtCeEpvenlTZHYgbEx6N0xTY0RJMkNzcS8zZU5aKzlsWGZBYWxNczNpY0ZrTnIwQW01L0sxWGxkSTZ0NzhSVExJVFJYdDM1ZS9rR3JEY3VBa1lZU1RHVSB6YlBmZkQ0dXhTa0NjMmt2NWVMTmtsKy9QelNIbGIzUENpQ2tHckRqWDNQa2kyRVJNRmJWbnR6bERhSmZ3RmVqYWc2NGVKOFdRR2JUIERiajk3WlFVMVZIeEZBdEJLQWZzZGduV25TUUJJNGpVbkVxNWZML21WblJvRDhyN3RBQXkycTM0RkZ3WmsrSmZtd0V6Nlhoc25DdHYgNlJHdytpeUw5NGtCSkF3Q1R2ZjNXOVJueVUwd1FqQUkyT0c3WVAwaEVUQkMyUFJydWY4U1hLMnQ0M2VLOTRrQkpEb0NycjduN1pmZyBiREFpN3hNRFNDU0xyZDN4cGlQcUgzY05iaFNBR1hUMFVuL1RteS9CMldLYWdqY0YzSmtFZk84bFdQSzhpWUN4cEo1cnBkSGJkc3VDIEFiVy9hL0UrTlVEZFpoUHdyWC9NWVRNZXZrZENBRllCcC92NkZaWFdQaDRDUmdBOW9VbmU5OGJQME5sb250Nm5CcWpyMk5peVMxUFAgYjRZdVpzUHhQalZBVmMrRlV2alo4cTZBWmFQWjJ0KzRlSjhjb01ZdzRJNWtlaFN6MFFqZkdmRFRVMWtSdnZjOUFkdE5sS2RZbUY0eSBETGpubDROWlpUMkQ4VDQ1UU0xRUFlZmZyMnI4VUorRmd6SDZneFhBVmNlMmx0OGJEcnloT0g3cFdIb0N6dDVuQjZnd0RWaFVZUjRhIG0vZytsWUN4b0s0L3Q4aDY3MTdwci80YlFIRXMzeFh2MHdOY3F4Y3lkR0ZLdzI5VTZVNytvTmp3K3pMQWkzSEFsOVdVKzk3akp3TEcgZXBKdHdCZlZGUG1iWFB5V2FaaHF6MHk5VHc5d3pUcmcwL2JhaHFud1c0Q0FzYUNlWGQyMHJjZkQrK1hrYzNRMm5tckwrd1AzTXc4NCBhVjNZanQ2bjZSNlZnTEVlODRDM3dlejAzaWw5dEN0dUp3WVE2UHRYOTAySCtOcE4xaHR0MjIrQ25vQjVESTJwYlIyYnVuRlhmNmx1IGJMejdDTXZBYXdrWUM3Z2g0RGZWSUhZVkRyeVVnTEdDbmszZHVxczMxUjVTOTd0MXpmVytVd0cwdXlQZzk5NFhIdnYzK3lEM3ZwQ0Egc1lpZVBkM2NZZXA4M1ltdE02NnVnUE1OSndIbzFQY1F1alhFVGJYZnY3OFFTdDh3MnJRZUJMalJQUUcvNi9iN1dYQnVmQlVCWXpWZCBlN3A5VXl2Mys2ZmdXeWJMWTJoTTdLYUFOL1VRVXNjN0VqQldrKzRKK0YzL1lWREhPL2I5dHJKWmVFRERUUUcvcGF3KzlQYXlidml6IFVlQldYVnM2Nm9PZHZvQ3o5N0NCTTUzL0FjSGlQZTQ3WjV1OWh3MmMyZm9DenQ3ajduUFBkMmJBYlFpWWdCRllJdUE2NzJFRFp3aVkgZ0JGWTM0NStXTUJCWjRzSGVGYkFuZE9OT2xzc3IvT1NGSFpMOTgyMmVBOGJPRWJBQkl6QU5nSVc0SHNrVElxQUNSaUJFYkNJOTdDQiBZNzBCZTQrNzE4T21pOVdsaCszb3p1bG03M0VEaHpvM05BRURNeUJnQWtaY3ZWOERQeTNnNGoxdTRNaEd3Q0o4ajRRcFBTN2dSTUJZIFNPZCtmbHpBWWVlTHRSSHc0dlBGMm5yN0RidWhld1BPM2dNSERoQXdBU091N20rUkhoZHc4UjQ0OEIwQkV6QUMyd2hZaU8rUk1DRUMgSm1BRTFydWRueGR3MkFsalpRUzgvSVN4c3U1K3crN243b0N6OThpQnIvb2ZRajh2NE9JOWN1QXJBaVpnQkxZUnNCaVBvVEVkQWlaZyBCRWJBQkl6QXVuZnpBd01PTzJPc2k0QWZNR09zcTcvZnNOdTVQK0RzUFhUZ0N3SW1ZQVJHd0EySzk5Q0JMd2lZZ0JIWHdCOWlQVEJnIHZrZkNaQWlZZ0JIWTlzQ0FIemhscktyL2FoUjNOejl3eWxnVkFUOWl5bGdWQVQ5aXlsalZ3R1lPdTVzSHBweTl4dzdzRURBQkk2NlIgYjVIQzd1YUJLUmZ2c1FPdkNKaUFFZGhHd0UzNFN3NU1oWUFKR0lFbEFtN2pQWGJnRlFFVE1BSjdZc0JERCs2OEJ3KzhHdG5Mand3NCA2Snl4S0FKK3hweXhwcUc5SEhVekQwMjZlSThlK0djYkNyaDRENy9QVU1COGo0U0pFREFCSXpBQ0ptQUVscDRZOE5odkxlL1JBLzhRIE1BRWpzS0d0L015QXMvZndnYi9HQWc1NlAwakFXTVRZMThEUERMaDREeC80Uk1BRWpNQUltSUFSMk5oV2pocHdldUtrc1NJQ2ZzeWsgc2FLeHJSejFPOUhCV1hzUEgvaEV3SStaTkZiMHpJQUhKNTI5eHcvOFFjQUVqTUFHdDNMUXZUdzQ2ZUk5ZnVBUEFpWmdCRWJBQkl5NCBCdjhRSzJqQW83TXUzaE1BZmlOZ0FrWmcyMmpBeFhzR1BVWUQ1ayt4TUFrQ0ptQUU5c3lBUjJkTndKaEVJdUFlM2hNQWZoc09PT1RGIGlJQ3hDQUltWUFRMnVwTmpCano4YXl0N3p3RDRoWUFKR0hFTi94MUh6RStUd3dFWDd4a0FQejAwNE9GSkYrOFpBRDl0Qk53bDVJMEQgMWtQQUJJekFDSmlBRVZoNlpNQVB2ZlBIZWhRQ3p0NXphRWZBV0FRQkV6QUNHOS9KRHcwNDRLeXhJSVdBaS9jYzJoRXcxcUN3a3g4YSBjTUJaWXowUERYaDc1S3l4SG8yQUEzNGxTc0JZZzhKT2ZtakFBV2VOOVdnRUhQQWJsVVRBV0lMQ1RuNW93QUZuamZVOE5PQm56aHJyIFVRazRlOCtpR1FGakRSbzcrYUVCeDVzMTFxTVNzUGNrZkthZHZTY0JxT3prZ005akV3RmpCUnAveHhIeFR4cTJaMDRicTFFSk9IdlAgd21mZXhYc1NBQUVUTUFKVENkaDdFajBVcGgzdzFoK3JlV3pBaVlDeGdJZitZeVQrTlFQV29MQ1BZOTRMYWt6Y2V3NkF4ajdPM3BQbyBRc0JZUUhyc1BsYVl1ZmNVQUlWdEhQUldjQ05neEtjUWNQR2VReDhDeGdMR2QzSFFXMkQrajJXeEFvV0F2YWZnTi9Yc1BRVTgzb01EIFRnU004TWI3RGZvTVMrTW1PSHRQQVUvMzVQOUF3WGpBWWFlT1ZUejVTYzc0M0l2M0ZQQjBUdzU0L1BhaGVNOEFUN2VOQit3OWhYNXAgZE9waGIvK3hpdkdBQTIvaTRja0huanZXTUI1dzhaNkM0K1FKR000U0FZL3duZ0dlYmp6ZzdEMkZmdU5QOEx4bmdLY2JEOWg3QmlNZSBQWG1zWUhnTGg5N0R3Nysrc3ZjTThIREQvWVoranJNUk1HSWJEcmg0ejJBRUFTTzJoLzgxNGZEMFE4OGU4WTBIbkwybk1JU0FFZHJUIHYwZ2hZSVQyOUlBVEFTT3liYlRmMEEraHgrY2ZmUHFJYmpqZzRqMEQzL2tUTUZ3OVBlRFJXd2dDaHFzMEduRDJuc0dZNFdjQTNoUEEgc3cwSDdEMkJVVStmUDJJYkRUajhSOGpSQmZBZVA1NXQ5QUlVUHVCdGNBR3k5d1R3YUtNQkYrOEpqQnE5Q2M3ZUU4Q2pqUWFjdlNjdyBpb0FSMmVNREhsMkIrQXVBd1BnV1pUVGc0ajErUEJrQkV6QUM0dytSUnI5SEt0N2p4NU50QkR3WThBSXJnTGdJZUhRSkZsZ0J4RFVhIGNQR2VnUHNTRURBY0VmRG9Zd0FDaHFNMEdIRDJuc0M0MGVkNDN1UEhreEh3OFBkSTNzUEhrNDBHN0QzK0NkYkFlL2g0c3NGK2w3Z0IgM01iV0lIdVBIdzlHd0FTTXdBWURMdDdqMXpENEZDdDdqeDhQUnNBRWpNQUdBODdlNDU5Z0VZcjM4UEZnQkR5OENNVjcrSGl3d1lDOSBoNjhqRVRDQ0l1QTNBa1pjWS8wdThTM1M2UGRJeFh2NGVDNytrUCtuc1lBWFdRUkVOQmh3OFI3L0RLdEF3SEJEd09PclFNQnd3OTh3IGpLOENBY1BOUnNBL0VUQmlHZ3pZZS9oYUVnRWpwTEdBbDltNkJJeVlobmJ1T2x0MzZQZllNcXVBZU1ZQ0x0N0QxeklVOERJM0VvaUggZ0g4aFlNUkV3TDhRTUdJYUN6aDdEMS9MMkJmQjNxUEhjdzF0WEFKZWJCa1FEZ0gvUXNDSWlZQVYxbUdkWlVBMEJLeXdEdXNzQTZJWiBDOWg3OUhvU0FTT2d3WCtNNUQxOFBVTUJGKy9SNDZuNGQzUi9FREFpSXVBL05nSkdRR01CRisvaFQ3SVFDNjBEWWhtNjhLeTBjWWNDIFh1aVRDR0laQ3poN0QxOFBBU01pQXY1RXdBaUlnRDhSTUFJYUM5aDc5Sm9JR0FFbEF0WllDZS9CNDZrSVdHVWx2QWVQcHhyYXRrdDkgY2lSZ0JFVEFuellDUmp3RS9JbUFFZERJcmwzcEQ3RUlHQ0VSOEtlaFA4WEszcVBIUXhId0p3SkdRRU1CWisvUlQ3TVVhNjBFNGlCZyBsYVZZYXlVUUJ2OS81ditNckVUeEhqeWVpWUQvU1FTTWFBajRId0pHT1B3ejluOElHT0VROEQ4RWpIQUkrSitOZ0JITnlLWWw0R1dYIEFsRU1CVnk4UnovUFdoQXdYQkR3UHlPM0V3UU1Gd1Q4RHdFakhBTCtoNEFSemxEQTJYdjB1Z2dZNFNRQy9tZGtMYnpIam1jaTRCY0UgakdpR0F2WWV2RGJXQXRFUXNOSmllSThkejBUQVNvdmhQWFk4RXdFckxZYjMyUEZNSS8wdTk5WEpTTURaZS9CNEpBSitRY0NJaG9CZiBFRENpSWVBWEJJeG9DUGdGQVNNYUFuNUJ3SWlHZ0Y5c0JJeFkrTC9FZWpVU2NQRWVQSjZJZ0Y4Uk1JSVpDcmg0ajE0YkFTTVlBbjVGIHdBaUdnTFZXWTduRlFBUUVyTFVheXkwR0lpQmdyZFZZYmpFUXdUWVNjUFlldlRiK1grMFFEQUcvSW1BRVE4QTdCSXhZQ0hpSGdCRUwgQWU4UU1HSWg0QjBDUml4REFYc1BYaDhCSXhZQzNpRmd4RUxBTzZ3R1lpSGduY1JxSUJRQzNpRmd4RUxBT3dTTVdBaDRoNEFSeTBqQSBDejUzSldERVFzQTdCSXhZQ0hpSGdCRUxBYXN0aC9mWThVUWpseHdDM3NuZWc4Y0RFZkFPQVNNV0F0NGhZTVJDd0RzRWpGZ0llSWVBIEVjdEl3TVY3OFBvSUdMRVE4QTRCSXhZQzNpRmd4RUxBT3dTTVdBaDRaK1QvMlQxN0R4NFBOTEJoQ1ppQTRZMkFkd2dZc1JEd0RnRWogRmdMZUlXREVRc0E3Qkl4WUNIaUhnQkVMQWU4UU1HSWg0QjBDUml3RXZFUEFpR1VrNE93OWVIMEVqRmdJZUllQUVRc0I3eEF3UWhuWiBzQ3Z1MkpIMUtONkR4L01Rc041NkZPL0I0M2tJV0c4OWl2Zmc4VHdFckxjZXhYdndlQjRDMWx1UDRqMTRQQThCNjYxSDhSNDhub2VBIDlkYWplQThlejBQQWV1dFJ2QWVQNXlGZ3ZmVW8zb1BIOHhDdzNub1U3OEhqZVFoWWJ6Mks5K0R4UEFTc3R4N0ZlL0I0SGdMV1c0L2kgUFhnOER3SHJyVWZ4SGp5ZWg0RDExcU40RHg3UFE4QjY2MUc4QjQvbklXQzk5U2plZzhmekVMRGVlaFR2d2VONU5nTGVHUW40aC9mZyA4VHdFdkVmQUNJV0E5d2dZb1JEd0hnRWpGQUxlSTJDRVFzQjdCSXhRQ0hpUGdCRUtBZThSTUVJWkNyaDRqMTRmQVNNVUF0NGpZSVJDIHdIc0VqRkFJZUkrQUVRb0I3eEV3UWlIZ1BRSkdLQVM4UjhBSWhZRDNDQmloRVBBZUFTTVVBdDRqWUlSQ3dIc0VqRkFJZUkrQUVRb0IgN3hFd1FpRmd2ZlVnWU55T2dQWFdnNEJ4T3dMV1d3OEN4dTBJV0c4OUNCaTNJMkM5OVNCZzNJNkE5ZGFEZ0hFN0F0WmJEd0xHN1lZQyBYbkRIRWpCQ0lXQzk5Vmh3T1RBN0F0WmJqd1dYQTdNallMMzFXSEE1TURzQzFsdVBCWmNEc3lOZ3ZmVlljRGt3T3dMV1c0OEZsd096IEkyQzk5Vmh3T1RBN0F0NUxMQWNpSWVBOUFrWW9CTHhId0FpRmdQY0lHS0VNQmZ6aFBYcDlCSXhRQ0hpUGdCRUtBZThSTUVJaDREMEMgUmlnRXZFZkFDSVdBOXdnWW9SRHczc2hxRURCdVI4QjdCSXhRQ0hpUGdCRUtBZThSTUVJWkN6aDdEMThkQVNPVWtmK2NKZ0h2RmUvQiA0M2tJZUkrQUVRb0I3eEV3UWlGZ3ZlVW8zcVBIOHhDdzNuSVU3OUhqZVFoWWJ6bUs5K2p4UEFTc3R4ekZlL1I0bnJHQWkvZndwMXFPIDVWWUQ4eU5ndmVWWWJqVXdQd0xXVzQ3bFZnUHpJMkM5NVZodU5UQS9BdDdaV0EyRVFzQTdCSXhZQ0hpSGdCSExXTURML1FNNkFrWXMgQkx4RHdJaUZnSGNJR0xFUThFNGlZTVJDd0srR0FzN2VvOGNERWZBckFrWXdCUHlLZ0JFTUFiOGlZQVJEd0s4SUdNRVE4Q3NDUmpBRSAvSXFBRVF3QnZ5SmdCRE1VOEhML2NTUUNSakFFL0lxQUVRd0J2eUpnQkVQQWFxdVJ2VWVQQnlKZ3RkWEkzcVBIQXlYMjdBc1dBOEVRIDhDc1dBOEVROEF2K1F6T0lob0JmRURDaUllQVhCSXhveGdJdTNzUFhSY0NJaG9CZkVEQ2lJZUFYR3dFakdBSitRY0NJWml6Z3hmNDkgSVFFakdnSitNUmF3OStqeFJHTjdsb0FKR0s0SStFVWlZQVJEd0M4SUdOR01CYnpZcGlWZ1JFUEFMMWdMUkVQQUwxZ0xSRE1ZY1BZZSB2eW9DUmpRRS9JS0FFUTBCdnhoYWlzV2V5Q01HQXY1bjdCOGpFVEFjREFaY3ZNZXZpWUFSRGdIL1E4QUloNEQvSVdDRVE4QmFhMEhBIGNEQVk4Rks3bG9BUkRnRnJyY1ZTUzRFb3h1NzcxdHExWXdFWDcrSGppUVlEWHVyUGp4SUJJeG9DL29lQUVRNEIvek8yRXNWNytIZ2kgQXY2SGdCSE9hTURaZXdLS0NCamhFUEEvQkl4NENQalQ0Tyt5aFZZQ2dRd0dYTHpIcjRlQUVSQUJmeUpnQkVUQW56WUNSandFL0ltQSBFZEJnd0F2OU1UUUJJeUFDL2tUQUNDZ1JzTTVLZUE4Znp6UzRiUmZhdHdTTWdBajRFd3VCZ0VZRHp0NFRVRVBBQ0lpQVB4RXdBaUxnIFAvaUhsWWhvSStEZitIOEhRMFFFL0FjQkl5SUMxbGtJQW9hTDBZQ0w5d1FtV1FnQ2hnc0MxbGtJQW9ZTEF0WlpDQUtHaTlGdlQ1YlogdUlNQkYrL3g0NWtJK0k5RXdBaUlnUDhnWUVRMEd2QXlmNEZFd0lob09PRHNQUU1sZzh0UXZNZVBoeUpnbFhWWVpSa1FEUUgvd24raSBBakdOQmx5OEo2Q0RnQkVUQWYreUVUQkNJdUJmQ0JneGpRYTh5QmZCQkl5WUVnRnJMSVAzK1BGVW96dDNrYTFMd0lpSmdIOWhGUkRUIGNNRFpld1lxQ0JneEVmQXZCSXlZTmdKKzR4OWxJYXpoZ0l2M0REUVFNSUlpWUkxVklHQTRHUTU0aWIxTHdBaHErQjhFTC9IOEpnMnUgUWZHZUFKNktnSDhpWUFSRndEK05ya0h4bmdDZWFqemc3RDBGQlFTTW9BaFlZeEdLOXd6d1dNTUJGKzhaak9QLzJnOWhFVEIvam9iQSBoZ05lNER0UUFrWllCTXkvNkVCZ0JFekFDR3g0OHk0UThQQXZNZThKNExtR0ExNWc5N0lFQ0l1QUNSaUJqUWVjdmFjd2F2aHI0QVh1IEloRFZOaHh3OFo3Q0tBSkdYQVRNdjRsR1lPTUJoOSsrQkl5NENKaHYwaERZK0Q5SEN2OE1sb0FSRndIengyZ0lUQ0hnN0QySFFRU00gdUFoNGZBVUlHSDdHQXk3ZVV4Z3pIbkR3QlVCbzR3RUh2d0J0Qkl6QUhoOXdJbUFFTmg1dzhNZlFCSXpJSGgvdytQeXo5eFR3WUFvQiBaKzg1ak9BeFBFSlRDTGg0ejJFRUFTTTBoWUJEUDhYYUNCaVJwWWNIckRCLzd5bmd5UlEyY09nZFRNQUlUU1BnN0QySkFRLy8vWVhvIEhoNnd3ak1zQW9halRXRUhGKzlKOUZNSU9QUWpBRVQzOElBVnBrL0FjRVRBQkl6QU5BSU92SVVWcGwrODU0QW4wM2lLRXpqZ1JNQUkgVFNQZ3dNOWhDUml4cVFTY3ZXZlJUV0h5eFhzT2VMSm5CNnd4KzdDVHh4STBBZzU3RTd3Uk1JSjdkTUNKZ0JHY3hoNE8reFRyeVhQSCBHbFFDenQ2ejZFVEFpRTRsNE9JOWl6NFAvdzROSzNoeXdCc0JJenFWVFJ6MEtaYkdMNitnVThjcVZBSU9laGtpWUlTbkUzRDJua1lYIGpaa1RNRnc5T0dDVloxakZleFo0TnBWZEhITWJxL3p1Q2psenJFTW40SkFmSkFrWThla0VIUElwVmlKZ3hQZmNnRlVtbnIxbmdZZlQgQ1RoN1Q2T2R6bWVQZ0JQSFVuUUNMdDdUYUtjVHNQY3M4SFJKWlI4SGZJcTFFVEFXOE5pQWRTYnVQUXM4bmM0K0RyaVJuenB2ckdYVCAyY2paZXg2dEh2d0ZPRmFpRkhEeG5vZlB2QWtZenBRQ0RyZVRDUmhMVVBwVHJIQTNnMGxsMXNWN0duZzZyWUN6OTBRYTZjeTZlRThEIFQ2Y1ZjUEdlaU11MGc4MGE2M2xvd0p2T3JMUDNQUEI0U2dFSGU1eVRDQmhyVUFvNDJGTXNwVWxuNzNuZzhiUUN6dDRUYWZIVVIzZFkgVDFMYXk4VjdJaDZUOXA0SG9MV1hROTBFRXpCV3NTbnQ1VkNiK1lsenhwclVBczdlTTVIVHVnVW1ZTGhUQzdoNHo4Umh6dDRUQWRTdSBSb0Z1Z3RQenBveFZxUVVjNkhMMHdOOVpXSlZld05sN0tyZFBtWURoVGkvZzRqMFZxZTF4TThhNjlBSU9jejFLQkl4bDZBVWM1aVpZIGJjTEZleWFBM25hT2NoUDh3THQrTEV3djRPSTlGWm1OZ0xFUXZZQ0RmSVpPQkl5RjZPM25HQnY2Z1RmOVdKbGl3TVY3TGhJYkFXTWwgaWhzNnhCZEplcit3UWt3WHExTU1PTVFsNldHL3I3QTZ6WUNMOTJUcUZHK0JDUmdUVU56UkViYTA0dStyNGowWFFEZmdBSitoRXdGaiBLYW9CWisvWjNEbmI0ajBaNEUzMUx6bm0zOVBiazM1YjRSRTBBNTcrTTNRaVlDeEdOZURzUFp0ckQ3dmh4eE5vWHBSbS93eTlFVEJXIG94cnc1RjhrcWM3VmV6TEFUNnBYcGNsMzlZTitWK0VwZEFPZWVsdXJUblhxbWVJNVZCL3N6SDBKVnAxbzhaNE44Sk55d05sN1BuZk4gdEhoUEIvaEpPZUNKUDFsdUJJd0Y2UVk4OFdkbzNYbG03K2tBdnlnSFhMem5jK1k1OXdwNEZPV0FwLzBNblhUbjZUMGQ0RGZsalQzdCBwVWw1bXQ3VEFYN1REcmg0VCtqWVJzQllrdmJPbnZRenRQSTBKNTBsbmtjNzRFbXZUYy80TllYblVRKzRlTS9vamxrU01DYWgvUFhLIHg1eVg0UFNFMzFKNEl2MkFzL2VVYnBoazhaNFI4SWQ2d0JOK3ZFd0VqRldwQnp6Zjd0N1dueUllUy8zcU5OOWRzUDRNcy9lVWdEOE0gQXM3ZWM5clR2ODJmYllaNE1JT0FKN3NMM3ZSbjZEMGw0Sk5Cd0pOZG9Bd202RDBsNEpORndNVjdVcTgyQXNiQ0xQYjNWQnZjWUhxVCAzU1BneVV3Q0x0NnpzcDBmQVdNYUJzOW9QMmE2QkMvKyt3bFBaeE53OFo3V3AyM3AyUUUyQVUveklUTVJNTlptRXZBczN5VFovSHFhIFpITEFtMVhBazF5Q0V3RmpjVFo3Zkk2UG1UWVg0SWtlMFFGR0FjOVE4R1l6czBrK1hRQS9HZTN5R2E1VFJoTWpZRXhFRkhCNS80Ly8gYkMyOWhKZ1pBU00yd1gxaStmT2pxVzJqZTgvTXFGLy8zMHpBUC9XQXk5K2ZiU3U0ZEk5SnhVYkFlSUxhZm4zOXhOaFdjSjU2WHQxOCBwd1hzTmUzWHBwM3VlclBZOXJ1R2dCRlZVNFZ0MzZ3V3YxbHRadjI2MzlzRHJ5cVhxdEwwMDlQc2RidCtDUmhUcVNTWnYveDQwMTR2IFhwUGFDQmdQc2JWdDE3WTBzcytjalA2RzhoZStCc1pVdHNidEd1RnlaZGd2QVdNdTc0M2JkWlB0YzgvdG5pd0RMdDRuREhqVkduRGogeDlOOC80emFmc1VRTUVKckRYait2NmcwN1pldmdUR1oxb0JiQ3k3M1RtZXo3WmVIMEpqTVpZOUhBYmNta3UrY2plVURhQUxHaEpvRCBidjZNZXVOa3pQc2xZRXhtYXc1NGsyMzE2emV4a1JxSFJzQ0libXZlcjgyWHVkc0t0dStYZ0RHWjkvYjkydHpKVFFYZjBDOS94NEhKIFhBZWNqMTdTSGtxNVl5WTM5RXZBbUU1N2VSMlBpa3JibUhwc04vVEwzM0ZnT2gwYmRzYWRmMHUvQkl6cFhHN1k0NCtNYWI2dGYwKy8gL0NFV3BuTzlZdzlmMGxWTHNaekVUZjBTTUtiVHMyTzdObit4bThOZC9mSXRFcWFUT2dKT290MytsZGtqM0w3aEVEQldjTDM3eStGciB0cjd0YjFUd2JmbnlMUkxtVTRueCtFVkpzdDNsdnhBR2RJOWtpdEVEb3lyZjZ1YkRGMjJpL2Q3d0c2SFhuZmtTTUNiMDNyTm5SLzdaIFQya2EzcVdCM3lQZVF3ZVVWRGJ0NFd2Ry90MmUwc0R0Ly9IZ1Y5bjdYQUhmZEczYXNSQlVIZ2FsMi9zbFlFd285V3phMFhxSzhhaHQgZUo4cTRMdEtDdVh3UmR0d0RLVnBrT3FISjJBc29oTEQ4Y2ZkOGZ2UG9ZL1JQdjN5TlRBbVZBblk1Q2I0WS9BS25BZ1krSzEyTVMySCByeHBPS0Z1TzJVWVpHVEpnb3hyRDRhdTIwUnJHQmszQXdCKzFmWnVQWGpSNkRSejhPSm84QXM1all3Wk05TFUyR0VNWkcvTkd3TUJ2IHFiWngrMTVsR29QTFRiRDNpUUtPYkxXTmUzZ0pIa3RvK0lGdXVyOWZIa0pqU3RXQWp5ODlRekdVMFVFVE1QQmIvVnBhamw0MmxGQnAgRzZMeTBaM0dERmdRZkJnK2V0azJFa01lSGZUUTBRa1lLK25yelRkZ2g2ZFl3Mk1HVE5UM3JzWi9LSGpuamtFVE1KNGhkUVUzY2cxVSBlQjRrR0RRQjR4RUVMZVNEbHcyMFVHNFp0REx2MHdRYzIrcWI5K2lTT1pCUXZtWFFCSXhIa0xUUStUSzdnRzkvaXNYWHdKaVVwTVRjIDk3SVRHcU1tWU9BWHljV3M5TDNNc0lXN0F5N0RJd1pNZEFiY24xQnBIT0NoUk1EQUw0THRxL29VcTJnTWVyczU0T3g5bG9BVGt2MTcgOExMdWdMUEdvTzkraXFVeWFNQ0FwTVR5L1dYZENlbU0rdWFBdlU4U2NHWVQ3TitqejlDZEtTZzl6MDIzOXN0RGFFeExFdkRSRllpQSBnUW1JUGd2bjc2L3JUS2pvakhxN05XQ2xRUVA2UkFHWDc2L3JUQ2pyakpxQWdkOGtPL2pnTTJUblU2eXNNK2g3SDBNckRSb3dJTnJDIDMxL1dtWkRTb084TjJQc1VBZWRTNXpXSWdJRUpiSkl0WEw2L3pyZUZPL3ZsSVRRbUpncjRZQS83dGtEQXdDK2lUNk1IZXppNXR0QjEgOUU3Rit4UUI1MlMzazk5ZnQ3bTJRTURBYnlFRDdqcDZwK3g5aG9BTG5adTQ2MEZ3Ymg3ZENRSUdmaE8xVUw2L3JxY0Z0VUhmK0QwUyB6N0F3TlZIQVNrK3g5RVpOd01BdnZVK3hPZ0pXYklHQWdWOWtBZWR2cjl0Y1crajQ5VUhBV0ZKbndCMjNvVVZ2MFBjRnJEaG93RURuIE52WU5lTHN0NE94OWZvQkxvbTJzOHNlVVJXL1FCQXo4bGtUN3VQZDFSaTNjOXoyUzkra0JyaEV3QVNPd3JUTSsyZXVNV3JndFlCNUMgWTNLeUVNdTMxN1UzcERscUFnWitrWVZZT2w4WFBlQXlQRkxBVnUrVnFMVUYxWXRadWluZzdIMTJnQXJaVHY3K3V0YUdDQmd3SUdzaCBkNzd1bjNML29NZDVueHlnWnV2TVQvWTZvNEJiRDk2SloxaVludXhwMUkvTzEvMlROUWQ5VThERisrUUFOYjBCdHo3Rnl2Y1Btb0R4IEFBUjh6NWdCRTdLOS9QMTFxUzBHajBHUDhqNDFRSjBzeE8rdjJ3Z1k4Q2NMTVg5N1hlUEhXTjFCMzlJdkQ2RVJnQ3pnOHYyRm5qRVEgTVBCYjcxOUR1d2FjN2dpNERBOFRzTmNiWUZORUVRUE8zbWNHRUpEdDV1K3YyeHl2WmdRTS9DR0w0ZnZybXA1aUZkMHhOLzN5SUdDcyBUQlp3L3Y3QzFRUDJQakdBaEN5Ry9QMkZzdklKR0xEVS9kZlFMWitocys2WTd3aVliNUVRUW5mQUxaK2hzKzZZN3dpNGVKOFlRRVMyIG53OWVtSllPV0huSWdKR0FBZC94ejVHVWh3d1lrWFdZdjc5d1d6cGc3OU1DeU1nNkxOOWYySkJSMWgzeURRSHpEQXRCZEFmYzhCUXIgNnc2WmdJRlAvWStoa3pnSGx5RVBLZDZuQlJEcURuanpDdmlHZjArWXZjOEtJTlRkb1B4QzZETmtBc1lUcE80R0Z3N1krNlFBVWx2MyBKVW1XZnNTQWVZYUZNUG9EbHIzU0lBZnhidzRDeHZKa3Q3TDU2S1hMQmx5OFR3b2cxcitsdDFVRHp0N25CQkFUNVhBWW9mQTVkTHlBIHZVOEpJTGYxUnlqTG9XaVAyRHBnYm9FUmlDamc0NHVTcktUaU0ySUN4aVBJUGdnUHZMUm9qOWc2WVBVQkE0WkVtenIzdjdSb0Q1aUEgZ1g4R05uVWlZTURaUUlXaXo5Q2xhVFFDMWdGbjd6TUNOQkFGZlBKZ1o4bUF2VThJMEVMVXc0LysxMmJ0QVJ2L2cyQWVRaU1VMlFYdCA1TVVFRFBnYStCNUo4dmxidndmamdJdjNDUUdhaUxaMVBuN3QxdnZDQWNZQjZ3OFlzRFMwclIydVp3UU12RWlTYlYxT1hyeFZYbWN3IFh1T0F2VThIMEVZVXhPbXQ3SFo3RGJZQjh3d0x3WXdGZlBraE9wc00yRFRnNG4wNmdFWmpBYi9mSG9OcHdObjdiQUNOa21Sam43KzggSS9veHBnRjdud3lnMVdEQTI5MFhNd0lHWG15U2paM1BYNSthWHpIR3NsK2VZU0VjMFZPc2ZQRUdoeThvWnVPMUROaHUxSUNWMFozOSBmbThKbGdGbjczTUJOQnUrTkcyM1hza0lHSGlWQkR2Nyt1YndhOEhGY3JpV0FYdWZDcURkSnRqWlAxcmVJcHNPbDRDQlZ3b0J2MlpsIC9TVFhzRjhlUWlNZ3lXUG8rdFordjZ1QlJNREFDNTJBZi9xUE80WnJHSER4UEExQUo4bmU5aDdqUDRZQmUwOE42Q0ZKd251TWJhTWwgWUR6SUp0amIyWHVRZjlrRnpDMHdRcExjQkdmdlFmNWxGM0R4bmhyUUpkVG10Z3M0ZTA4TjZFTEFCSXpBQkUwVTd6RzJETGFUOTh5QSBQbHQ5YzgvemdNY3M0SG1tQ0RRUlBNV2FaM2ViQlZ5OFp3WjBFbXh2N3lIK1pSWnc5cDRaMEltQUNSaUJDYUxJM21Oc0dHc2Y3NGtCIHZUWUNudWd1SDJna2VJcFZ2TWY0eVNyZ2FTWUlOQXUwdjYwQ3p0NFRBN29KcXZBZVlzTlFDUmdQc3hHdzk3eUFmb0tBcy9jWS96QUsgbUdkWUNFendGQ3Q3ai9FUG80Q0w5N3lBZm9FZVF4TXc4RTE5aDgveUdkTW80T3c5TDJCQVBZdkZBL2FlRmpCaUM3UEZiUUtlNWRjVCAwRVZ3RSt3OXhEOXNBaTdlMHdKR3hIa01UY0RBZDJIMnVFM0EyWHRhd0pCNkY4VjdpTktCOXZDZUZUQm1lM1RBUE1OQ2NQV2I0RWsyIHVVbkF4WHRXd0tCNkdObDdpTUp4ZHBoamFrQy9Sd2ZzUFNsZzFGYmQ1Y1Y3aUw5WUJEekozUUhRTDhwTk1BRURSK3I3M0h1RXYxZ0UgWEx3bkJReXI3L1BzUGNTZkxBS2VZbUxBa0hvWjJYdUlzbUcyODU0VE1HNnI3dlBpUGNTZkRBTG1GaGdMcUFjOHhVWW5ZT0JJa0g5UiBhQkJ3OFo0VG9LQyswN1AzRU45TUFwNWhXc0NvZWhyRmU0aWlVVGJ6bmhLZ1lhdnU5Qmx1RnZVRG5tRld3TEFZTjhINkFSZnZLUUVxIDZtMWs3eUZhQk93OUkwREhGdUZpcFI0d242Q3hpQkNmb1FrWU9CYmkvNXBTUGVEaVBTTkFTWVRkcmg1dzlwNFJvS1FlaC8vblRRSUcgVG16MTdlNDlSUDJBdlNjRWFJbndYeG5WRHRqL013V2dSQkN3KzM3WERyaDRUd2hRRStBVHAzYkEyWHRDZ0JwQkhXWCtJVGJ4WG5KQSB6L2E0Z04xdkNRQTlncHRnNzB1V2NzREZlOGtCUllJdG4zMUhxQnl3ODJ3QVZZSThuRDkwS2dmc3ZlQ0FKc2xuNk9JNlF0MkF1UVhHIFVpUUIrMTYxZEFNdTNnc09xSkwwVVdZZm9GejJYbTlBbGFpUDZRY281cjNjZ0s1dDl1dVdhc0RjQW1NeG9wdmc0amhBMVlBOUp3SlkgRUczODdEYytBZ1l1aUFKeC9PaXBHbkQyWG0xQW1TeVFQUG40aEx3WEc5QzJpWGErM3lWWU0yQ2VZV0U1b3FkWWpuZVBtZ0c3VFFJdyBNL25GU3pQZzdMM1dnRHBoSVdYdTRZbDRMeldnYjV2NzhxVVlNTGZBV05IY0Z6REZnTFAzU2dNR3hJbVUyanU5VjMvQ2NIU1QvZ0lDIGpHM2lBc3IxRzcxYjNDanJCY3duYUt4SjNrQzVlcHRrOHFSTEwyQ0R3UUVUVUxtS2JVYU42QVdjdmRjWk1MRXBGR3gya2RNTDJIdVogQVJ2Q1A4YjZPSS8wNm44YlJNREF0YmFBdjMwV2ZYbDUwUitjV3NBOHc4S3FCcTVtKy9pTC90alVBallZR3pDRm1TTlJHNXYzSWdOVyB0Z2NFekNkb0xLdjFKamhpd0FaREF5YnhnSUN6OXhvRFppYSt6R2tOelh1SkFUdmI4Z0Z6QzR5VkxSOXc5bDVod0pCU0ptWGFrWGt2IE1HQnBXenhnUGtGamJZc0hiREF3WUNMVGRxSXpzT3k5dm9DcGpZQ0J1TllPbUZ0Z0xFN25yeW1ML3NCVUFqWVlGekNWcFFQTzNxc0wgR0p2MVNxY3lMdS9GQmF4dEN3Zk1MVENXcDNJVFhQVEhwUkd3d2JDQXlVeGFpc2F3c3ZmYUF1YTJkUVAyWGxyZ0Jzc0duTDFYRnJpQiBRaXBseWxGNUx5eHdoMjNSZ0hrR2pXY2dZQ0N3UlFNMkdCUXdvU2xiR1IrVTk3SUM5OWlXREpoUDBIaUk4VC9HS3ZxREdnN1lZRXpBIGxKWU1PSHV2S25DVGJjV0F2UmNWdU12d1oraWlQNmJSZ0xrRnhuTXNHSEQyWGxQZ05xTzFsUG1HNUwya3dIMUdQME1YL1NFTkJzd24gYUR6SllDNWx1aEZsN3hVRmJyU3RGckQzZ2dKM0d2d01YZlJITkJZd242RHhMSXNGYkRBZ1lHTFQ5VEkySU8vbEJPNjFMUlV3bjZEeCBNR00zd1VWL1FFTUJHNHdIbU5wc3dReU5KM3V2Sm5DemJhR0ErUVNOeHhuNkRGMzB4ek1Tc01Gd2dNbE5Wc3pJY0xMM1dnSzMyOVlKIDJIc3BnZnVOZklZdStzTVpDTmhnTk1EMDVrcG1ydEVBMDVzcm1ZSFJaTytWQkJ3TWZJWXUrcVBwRDloZ01FQUFVelhUUDVqc3ZZNkEgaTIySmdQa3JEanpWRWdFYmpBVUlZYVpvdXNlU3ZWY1JjTEl0RURDZm9QRmNDd1JzTUJRZ2lJbXE2UjJLOXhJQ2ZucS9DaTc2UXlGZyBvRlg4Z0xrRnhwT0ZEemg3cnlEZ2FJc2VzUGNDQXA0NlAwTVgvWkgwQmN3bmFEeGJYemRsbG9GazcvVURYUFZkZ292K1FMb0NOaGdIIEVNb3M0WFNOSTN1dkh1QnNDeHd3ZDhCQTRJQU5oZ0VFTTBrNWt3d0RDR2FibzV5ZWdMMlhEdkRYOHh5NjZBK2pJMkJ1Z1lHdWRJcisgS0RwK2pXVHZsUU1tc0VVTjJIdmhnQ2tFRGRoZ0VFQkFhWVoyMmdQTzN1c0dUS0g5TVZiUkgwVHpHSGlFQmZ3V01tQ0RNUUFoYlJQRSAweHl3OTZJQnMyaitERjMweDlBNkJENUJBNTlTdklDOWx3eVlSK3NsdU9nUGdRc3cwSzN4RWx6MFI5QVljUFplTVdBaVc3U0F2UmNNIG1FcXdnQTBHQUFTV3ZQdmhBZ3owYTN1TVZmUUgwSFI4SG1FQmUwMlg0S0ovL0thQXMvZHFBWlBaQ0JpSXEra3pkTkUvUHArZ2dSRXQgbjZHTC91RzVBQU1qV2o1REYvM0R0d1RzdlZUQWhNSUViSEIwSUx5R1MzRFJQem9YWUdCTWloRnc5bDRuWUVyeUI5RkYvK0RpWS9NSSBHamdtdmdRWC9XTjcvdklBbGhBaTRPeTlTc0NreEoraGkvNngrUVFOakpKZWdvditvYmtBQTZPa2wrQ2lmMmd1d01DdzZRTTJPREt3IGpHMzJnTDBYQ0pqYTVBRWJIQmhZaU93U1hQUVB6QVVZR0NkN2pGWDBEeXc2TG8rd2dHdHA1b0N6OStvQWt4TjloaTc2eCtVVE5LQkIgVW5EUlB5ejlBaXA4N2tWOWZtMEF5eEZjZ24wQzlsNFlJSVJKQXk3ZTZ3S0VVTDhFdXdTY3ZkY0ZDS0grWGJCSHdId0hETWlrR1FQTyAzcXNDQkZHOUJEc0V6QVVZa0twZGdoMEN6dDVyQW9SUnV3VGZIekFYWUVBdXpSWnc5bDRSSUpEM3lRTG1BZ3kwbUN6ZzRyMGVRQ2piIDNUMWRCK3k5SEVBd1V3VnNjRHhnYmVuZW9LNE9sNzNYQWdqbmZacUFlWUlGdEV1ekJKeTlWd0lJYUpzbFlPK0ZBRUk2YnlyZmViRGkgdlE1QVNPOTNCbng2dmVjT0dPaVRaZ2pZNEZqQU0wd1FNQmRnb05kWlZRYUhPdnU4bnIzWEFJakxQZURpdlFKQVlNZVhZSXVQdFNjQiBaKzhWQUNLNzc3NlVDekNnYnJzdHE3cytxd05Qa3U0SytMWURBVTl5Y0EzT2tZOERQTXJCMDZXYmpzTlh3TUM0N2Fhd3VBQURGcEpQIHdNVjczc0FTM3U4cGl3L1FnSWt2SDZLenpWSFNMVWNCbnVlV0wyZTNPeTd6d0FOdGQzeTJmYi9qdHdUd1JPbU9hK010QndHZTZJNXIgNDJaL2xRZWU2ZjJPdHZnQURSajVlM25NZHNkSU54d0RlS1liYms3ZitRQU5HTmx1K0hCN3h6R0FaM3Evb2EzRUIyZ0FBQUFBQUFBQSBBQUFBQUFBQUFBQUFBQUFBQUFBQUFBQUFBQUFBQUFBQUFBQUFBQUFBQUFBQUFBQUFBQUFBQUFBQUFBQUFBQUFBQUFBQUFBQUFBQUFBIEFBQUFBQUFBQUFBQUFBQUFBQUFBQUFBQUFBQUFBQUFBQUFBQUFBQUFBQUFBQUFCQTV2M2pxeC9lUXdJZzhUM2VmNHIzNEFCYytyaVcgdmNjSDROVDJVWlc5eHdqZ21LQmZQa2NEazBxU2Z2OC83M0VDK0U3YUx4ZGhZRDd5ZmlrWW1JM28vcGVDZ1NtMTljdGZkZ0F6YWUyWCBhekF3a2VaK0tSaVlSc3NETEFvRzV0TCtBZnFYN0QxdUFOZi9mdUdTOThBQjlGNS91UVlETStqdmwyc3c0QzJOQk16WHdZQ3I3aHZnIDM0cjMrSUZIRzdvQWN3a0dYRzFqL1U3NEhDdXBqUFZpWFZ4K1orbk1Dc3NaN1hlNjUxaFh0d1FONlYwRTQxSE01WTNPL2NQQkxBYnYgZ0g4cTNuUFkyNjdHcXJNdURqTytuRlcrZnp5WXhOV0ZSc3A3RGcwenl0SjN1UXpHNFRQMDVheksvZVBCSEJRdXdMUHRINTJoWGdicyA4Q3ZyY2pnOFNIeXN5MS9zWXQ2emVIWDlLMG04MWE4WEpnZWRGUmFqY2dHZTZ4N3NpUUZQOVJzVU43cmVwbUxGZXg0dk5wMnRQdGx2IExBTEdBYVVMOEZRZjRkWU1XR2xXV0V0U0NuaW16OUFFaktmUXVnQVRjSlJaWVNtVlhkR2dlRTlGUENucDJ4QXdwcWZXcnlUZ3UzWTkgQWVNaEtwdENOZUJmUDNYTHN5NEN4a09rMndMK2U3Tjl3NndJR00rZzl3aXJHdkRmbjd2aEdrekFlSWJLbm1pU3BVY3EzdE9TdmcwQiBZM0tLL1Y1djZIZnhUMm9nWUR5QzVpZm82dzJkWG4reVdNK0xnUEVJbFMyaEYvQW0vOUViNWlWOUd3TEczTkpkQVgvNVVldm5XQVNNIEoxRDlCSDI1Z1c3ZWJBU01KNmpzQ0wyQXZ4Mm91RTVNK2pZRWpLbWx1d0srZTdjUk1CNmdzaUVhWGR6WHBxYWZ0cCtaOUcwSUdETkwgSDVvdWtyeDl1eEV3SGtDMTM0dUFENStWbWM2TWdMRyt5bjdRQ3pnZC9YaHhuSnIwYlFnWUUwc2Zxc3JwZ1JwN1YwREFXTjlkQVo5OCAyMnc1TlFMRytuVDdQUS80Wk45bHc2a1JNSmFuKzJkWTdRRVgrVkNiRVRDV1Y5a096ZkxaZ2RMeHoxdmVCQk13bHBjK2RPV3pBemxzIE9BTEc4cFQ3UGQzUDc2MHZVRURBV0YxbE4rZ0ZmSHFnNGpZNTZkc1FNS2FWN2dyNDlFQ0dOOEVFak5WcDkzdTZuejEySEFGamNaWE4gb0Jmd2UvTXI3R2NuZlJzQ3hxelNYUUZmN0xwaU5qc0N4dUxVK3ozYlArbjhGWFkzd1FTTXRXbi9HUllCMzRDQThhbXlGeFFEdm5nRiBBYnZNQ2d1NExlRDM5cGZZVDAvNk5nU01TU1gxZms4dXB3UTgzYXl3QVBWK3p3SyszSFRaYW5vRWpMVVI4UGdxbVkzZWVGYUl6K0FoIDlFbkE2ZW8xeFdwK0JJeWxWYlpDajNKOHBKN296ZWNuZlJzQ3hwd1NBVXNRTU9hazMyOVh3R1o3am9DeE1vTmJZQUsyUjhENHJiSVQgRkFPdS9LcklQaE9VdmcwQlkwckpJT0I4ZUNRQ25tOVdDTStnMzVQdFhObHp4V2lDQkl5Rldkd0NFN0E5QXNZdmxZM1E1L2hRNmZwRiBWdDhqRVRBV1ZxbUtnRDhSTUdaRXdFSUVqQmxaOVB2UmR5aWpHUkl3Rm1iUjc0KytReG5Oa0lDeExwT0gwQVJzajREeDA0MEJWdytWIGJhWkl3RmhYWlI4UThGOEVqQWtsaTRETDRhRUllTUpaSVRnQ2xyNE5BV05DRnYyZUJMejF2V3dZQVdOWjFhZ0krQk1CWXo0MkFlZSsgWXhXWE9VcmZob0F4bnhRaDRLdWJaOEhmWHhJd2xtWFNyM2JBYWF3Y0FzYXk3Z3c0MVY3Mm8yZVFwVHBIQXNhcVRQNE9xL01mSXhGdyBFd0tHMVRNczVZQ3ZmOHVVMFVsSzE0cUFNWjBGQXE0L3hTSmdyS3JhRkFIL1JjQ1lqazNBUGY5cE13SnVSTUN3ZWdoTndEY2dZRmc5IGhDYmdHeEF3Q0ppQUVWbGxFL1FxeDBjajRCdlAzZDNEZ1FjQ0ptQUVWazJLZ1A4aFlNeUdnQWtZZ2RuMGU3YVpDVmdUQVlPQUNSaUIgR1gyTFJNQjNJR0FRTUFFanNNb2U2SFp5T0FLKzhlVGRQUnc0SUdBQ1JtRFZvblFEM21xdks4ZXZJMkREV1NFd28zNEorQTRFREtOKyB6NUlpWUUwRS9IaFdENkVKK0E0RS9IajlBZi9YZi8wUEFSTXdmRldEcWtiMkg3b0I1K1BYRWJEaHJCQlhHb3IzcjI5OW5TWFYrNThYIEpXRERXU0d1MW9ETDJSdDkyVXNFZkFjQ2ZyekdnUFA1TyswM1UzZkFYYThqWUFKK0tMVit2N3pYajk0RG5yeU1nQTFuaGJpYStpMlYgTjlzRVAwckFpZ2o0NlpxK1JhcG5rZ2o0VmdUOGRDMEJDLzR6MnY4S0x0V2ZhRHNJQVJ2T0NtRlZka0Q3OXZ6c3M5UitnSUFWRVBEVCBOUVJjWk8rWUtudVpnQlVSOE5OVmN1cllEZStWdlZ6WmMrWDZiUW5ZWWxZSVN4NXdrYjdsZHIxM0NGZ1JBVCtkdU4rR3paQXVmN3p5IDJDeDN2WXlBQ2ZpWnhQMld0amM5TDRxQUZSSHcwNGtEYm5uVDk4dmUrNDVEd0lhelFsVGlyNEVWajlsWElnRWJ6Z3BSU1FNdWlzY2sgWUQwRS9IRFNnTFBpTWZ0K1V4Q3c0YXdRVldVRG1PeUVSTUJxQ1BqaGhBR1gyNDZaejE1RndJYXpRbFRDZ1BOdHh6dzlFZ0ViemdwUiBKVkcva24rR0pQZmV0ZVVJMkhCV2lFb1djRkU5SmdIckllQ0hFL1dydlErNlFpUmd3MWtoS2xHL3VwK2dMeS83Qk55R2dCOU9GSEJSIFB1aldjeWdDTnB3VmdwTDlIVWRXUGlvQjM3R1VCUHdBb29DMVAwRmZIVFYzRHBXQUNmaUpmQUorNjlseEJHdzRLd1JWT2YrL0ZmWEQgcG80T0NkaHdWZ2hLRlBDTmh5M25yeUZndzFraHFDVG9WLzhUOUhtTXVlTTFCRXpBanlVSnVCZ2N0MlBERWJEaHJCQ1VvRitUVFhueSBpK01xUXdJMm5CV0NrZ1JzY2R5VGZWY3VYa0xBaHJOQ1VJSitEVzZCVC9kZHZuZ0pBUnZPQ2pGSnZnWXVOeDY0ZjZ3RVRNQVBKQWs0IG14eTV2VUlDTnB3VllwSUViSFBrdzQyWCs4ZEt3QVQ4UUpYVEx5dWp5M3Z6ZGlOZ3cxa2hKa0hBeGVqUUJLeUNnQi9OTWVDdDlWQUUgYkRncnhDUUlPQnNkK3IzMVVBUnNPQ3ZFbFB3Qy9uN3NTb01FYkRncnhDUUkyTzdnalVjaVlNTlpJYVo2djBZUG9YLzY4dHVqVkg2YyBnQTFuaFpqcUFSZTdnNyszN1RVQ05wd1ZZcW9IbkEyUG5wcCtVeEN3NGF3UWt1QVBzZkpkaDY4ZWlJQU5aNFdRQkFHYkh2OWw5NVhCIHdSSXdBVDlQUFdERFoxZy9wWWJqRUxEaHJCQ1NlOEJ2RFljaFlNTlpJYVRLMmY4d2ZRajltL3pYQkFFYnpnb2gxUVBPOW9QNDMvK1IgL1J3Qkc4NEtJVTBSc0JRQkc4NEtJZFVEOWg3aEN3STJuQlZDU2dSTXdJaXJHckQxUStnV0JHdzRLNFJVRGJoNGovQUZBUnZPQ2lGViBBODdlSTN4QndJYXpRa2dFVE1BSXJCcXc5d0JmRWJEaHJCQlNyZCtwemo4Qkc4NEtJZFg2bmVraE5BRmJ6Z29oRVRBQkk3QmF3TVY3IGdLOEkySEJXaUtqNnJ3bUw5d2psb3lWZ0FuNGNBaVpnQkViQUJJekFDSmlBRVZnMTRPdzlRdmxvQ1ppQUg2ZHk4Z240eUdRclJzQVAgVmczWWU0QTdCS3cwcXlSZU1zeXRGdkJjWjVpQUZXYjE5Y2ZMM2VPRm9uUjk4Z240U09pQXYvOUF1WHZBMEVQQUR3dDQvcE9NRnJXQSBpL2NBZHdoNGRGWVJ6aklhRVBDVEFuNmZac3hRVWdzNGV3OXdoNERIWmpVK2RVeW0waThCdHkvYTdVc21ubFVhV1R0TWlZQ2ZFL0RsIHo1VzdSdzBWdFlDOXg3ZEh3QU96ZXA5czJOQkF3SThKdUhLbXk5M0RoZ2EzZ0ZQUFZxci94NHl2bzM1eXdPbmpRL1J6aUtSV2hObXogamZldWc3WUh2TS9KSWVDTGJuNTBIMlgvZzZKWitmK0gzR0hBTGVCMGRkVHU0UjRvcjY4WGJmVzY2M2ZKNGhIbnE0TmNqYldJZi9MdiByTkpIMWVWd01DVzNnUHQyVWtmQXV4bUl0dnJnNEJ1dStlWHFJRmZGdGQ4WVZIN0c5bVREVEsySVluWGdycU1LTnVGMWxaS3RQanI0IGZjRGRCM3lYSDBNd3F5UmFLck96RFN0ZUFYYzlUaFp0d3N0SUJGdGQ0dnBkc3Z4SHUxZG9kMTdxczVKK2NqRTYyekJUT2ZkbXQwVTkgQVFzMzRkVVU2bHRkUkg3QS91OWVyNGRhR2s2aTREUUx4b01wMWM1c05qcHVSOEJKdUFtdnBsRGY2aUx5QTA0U3NIU3R1QXVPcG5MdSBKd280U1RmaDFSVHFXMTFFZnNBNUFxNmQ1ZllWd0NScXA5Ym51QWNCSi9FZXZJcWt1dFZsNUFlY0kyRDVZcFUzaEZJNTk5TUVMTitDIGw1RlV0N3FNL0lCV0FUZDlPVmI1MzY5WEhsT3JuVnVmNDM3YlJrbStCUzhqcVcxMUlma0JwN2dDOTY0VzVsY3J3K3E0YmZmQXRWR0sgdDJSdHF3dkpEempERmJqeVArOFZxek1PRTVVMHpENVJOV3pQd1g3WERMaklmL1NqYWZuNERCMUxjanFkVzhOaG16YmdkU1NWclM0ZCB2ZnlBTTF5Qis1Y0wwNnZFTVVQQW85c3p5OTlMT25yNUFXZTRBcmNwYndna1haOU5sMzlOdUQvczhPN004amVUamw1K3dIaFhZRDVEIGg1S3V6MmF4T3E1NGU0NXZ6aXcrYktDQWkveEhHeEZ3S0pXeldheU91MGszVVJyZWtWbDgyRUFCMjEyQnVRa09wWEl5aTlWeHBSK2ggRmZabWZqbHM1ZTEwVnUzMWdBRUQ1aEljU2NQbVZ5WGRuZ3A3TTRzUEd5amdJdi9SWmxibkhBWWFOcitxNnoxSHdJNVhZRDVEUitKMSBMcVhiVTJGdlp2RmhBd1ZjNUQvYXJMd2hqSWJOcjBwNkQ1ekc5K1BySENwYlhXZlZYZzhZOFFyTVRYQWN0ZityRmJNRFM3ZG5HdCtQIFdYellRQUVYK1krMk16dnIwRWJBWGRPVkh6RGlGWmliNERnSXVHdTY4Z09HdkFLWE53VGhGakQzd045KzlJdnJvWnBlZ2JrSkRvTXIgY05kMDVRY01lUVhtSmpnTUF1NmFydnlBSWEvQTNBU0hRY0JkMDVVZk1PWVYrR0pZbUFyM3dBYXllSjVjZ1RHbWR1cWREa3pBdmxmZyA4b1lZYXFmZTZjQUU3QnN3VDdHaXFKeDZ1KzhUK0FqOTdVZWJUbzN0UjJnK1EwZFJPZlYyQVV1M1o5TGRqUHBidlhMQW9GZmdpM0ZoIEpwVlRUOENqQnd4NkJTNTNia0wwcTV4NkFoNDlZTkFyTUgrTEZjVG1kUjY1Qi83Mm8wMm54dmdLekZPc0lDcW5uaXZ3NkFHRFhvRUogT0loMGZScUwyWUd2OXh3QmUxK0JMd2FHaWFUcjAxak1EaXpkbnBVQnR1NUZnNjErZmNDb1YyQzdNdzlOeWVzMGNnLzg3VWUvdUI2cSA5UlhZN3N4RFUvSTZqZEx0V1JtZ1JCWWZWc25yQWFOZWdYa01IVU82UG8zRjdNQ2JjUHRVQmlpUnhZZFY4bnJBcUZkZ25tTEZrSzdQIFlqRTdzSFI3VmdZb2tjV0hWZko2d0toWFlBS09JVjJmeFdKMllPNkJ2LzNvRjlkRE5iOENYNHdNODBoZVoxRzZQU3NEYk4yS0ZsdjkgOG9CaEF5NDM3a0owUzkzN2E1QjBlMVlHS0pIRmgxWHllc0N3SDZGNWloVkM2dDVmZy9nSVhWdmc2NkdhWDRFSk9JU0dyYWhMdWozVCArRmJNNHNNcWVUMWcyQ3N3VDdGQ2FOaUt1cTczSEFHN1g0RUpPSVNHcmFoTHVqM1QrRTdNNHNNcWVUMGdWMkJZYXRpS3VyZ0hyaTN3IDlWRHRyOEIyNXg1NktpZng0cFdwYlR1VUx5K1hicy9HdzlSMm9zbFd2enBnM0N2d3hkQXdqY3BKUEg5aDdmOVF1dlpXMTN1T2dQMnYgd01WN2IwS2djaExQWDlpOFozTEw2d25ZL3dwYzNqQy95a2s4ZjJGcTNROWZ2bGZrSHZqYmozNXhQVlQ3S3pCZkJFZFFPWW5uTDB5RCArMEc2UFp1UDgxMFdIMWJKNndIalhvRUpPSUxLU1R4L1lXcmVFUHZYWCs4NUF2YS9Bdk05VWdUZDUzQjBQMGkzWnhyZmlGbDhXQ1d2IEI0eDdCU2JnQ0xyUDRkaTI1aDc0Y0ZGMnJvZDZ3eFg0WW15WVJlVWNucjZ1K1Z1a3IvdEJ1ajJUN2thMDJlb1hCd3djY1BIZW5LanEgL3M4REU3RHdnSUUvUXBjM3pLNnl2WDcwdnJDK1Yva0lmYkFvTzlkRHZlRUt6R1BvK2ZrRkxOMmVhWHdqWnZGaGxXVDVRdVhURmZhLyBBaFB3L0FqWVFwWXZWRDVkWWE3QXFDTmdDMW0rVVBsMGhmMnZ3SHlQTkQvdWdTMWsrVUxsMHhYMnZ3SVQ4UHk0QWx2SThvWEtweXM4IHdSWDRZbkNZQXdGYnlQS0Z5cWNyUE1FVitHSndtQU1CVzhqeWhjcW5LOHdWR0hYY0Exdkk4b1hLcHlzOHdSVzRlRzlQMUhBRnRwRGwgQzVWUFYzaUNLM0I1dytRSTJFS1dMMVErWGVFSnJzQjhFVHc5QXJhUTVRdVZUMWQ0Z2lzd0FVK1BnQzFrK1VMbDB4V2VJR0MrQ0o0ZSBBVnZJOG9YS3B5czh3VWRvQXA0ZUFWdkk4b1hLcHl2TUZSaDFmSTFrSWNzWEtwK3U4QXhYNEl2UllRcVY3VlY2WDFqZkRkTHRtWFMzIG9kVldQejFnNkN2d3hlZ3dCUUsya09VTGxVOVhtQ3N3NmdqWVFwWXZWRDVkNFJtdXdPZm5IM1B3QzVoNzRJTkYyYmtlNmkxWDRQUHoganpsd0JiYVE1UXVWVDFlWUt6RHFDTmhDbGk5VVBsMWhyc0NvSTJBTFdiNVErWFNGdVFLampudGdDMW0rVVBsMGhia0NvNDRyc0lVcyBYNmg4dXNKV1YrQWY3Ky9pSCtkZk04eU9nQzFrK1VMbDB4VzJ1UUxucGxVbDROa1JzSVVzWDZoOHVzSVdWK0FmamE4ZzROa1JzSVVzIFg2aDh1c0w2QWU5ekZMM0VlMytpZ29BdFpQbEM1ZE1WMXY4STNmTDJoeS9CZEFqWVFwWXZWRDVkWWZVcjhOZERTVjdqdlQ5Uk1mL1ggU0tLOUtkK0ZDbS9YTnROcHJzQ2w3ZjJydzhNTTVyOENTN1paaGZ5d1NySjhvZkxwQ2lzSGZQQThxbkVtbUJBQlc4anloY3FuSzZ3YyA4TUVCVXR0TU1LRW5CSHpMM3l5ZHpuU1NnSDgwSDZBMlBNeGcvbnZnamdOZFRVS3dhY2RsK1VMbDB4WFdEZmp3Q0kxcmgvbk1md1dXIGZWOHBQbTU5cXl2SThvWEtiNmZFS3lTWTFmR0pUTldabkc4QVRDRkF3TlhOV2ROd1dDVlp2bEQ1N1pSNGhRU3o2am5DVCtjYkFGTUkgRVBEb0piamxzRXF5ZktIeTJ5bjVDbFZuZFhJZTZ5ZnhmQU5nQ3ZQZkF6Y2R0LzYzdTdXdHJpS0xCM3hQd0tmTFVwM0orUWJBRkNKYyBnUnVPUzhDSFRrOWpxczJFZjgwd09RSzJrTVVEdmlmZzAwT2sya3dJZUhKOGhMYVF4UU8rSmVDQnMwakFrK01LYkNHTEIrd2NjUDBtICtJWTlpQUVFYkNHTEIrd2RjS3BONVlZOWlBRUViQ0dMQjB6QUdNSTlzSVVzSHJCM3dOWGx1R0VQWWdCWFlBdFpQR0R2Z0t1bjhZWTkgaUFFRWJDR0xCMHpBR0VMQUZySjR3TjRCVng5RFg0d1BFK0FlMkVJV0Q5Zzk0TlF3RmN5SEs3Q0ZMQjR3QVdNSUFWdkk0Z0c3QjF4YiBqNHZ4WVFJRWJDR0xCMHpBR0ZMWlhqOTZYMWpmQzl3REh5eEt3MUNWQXE2ZHg2dlh3cDlmd0EzYlUzNWNBajVTK2pjQUFVK09nQzFrIDhZRGRBNjU5ajNUNVdyampJN1NGTEI2d2Y4RHBvLysxY01jVjJFSVdENWlBTVlTQUxXVHhnQWtZUXdqWVFoWVAyRC9neW9Md2Y4a3ggTis2QkxXVHhnQWtZUTdnQ1c4amlBUk13aGhDd2hTd2VzSC9BM1RzQU15QmdDMWs4WUFMR0VPNkJMV1R4Z0FrWVE3Z0NXOGppQVJNdyBoaEN3aFN3ZThQUUI4LytwTXpjQ3RwREZBeVpnRE9FZTJFSVdEOWcvNE5xL1pqRGZnaGpCRmRoQ0ZnK1lnREdrK3dNVUFRdG5PbjNBIDZYcUE1bHNRSS93QzVpUDB3YUkwREpXQThjWVYyRVlXRDVpQU1ZU0FMV1R4Z0FrWVF3allRaFlQZVA2QTh4c214ajJ3aFN3ZThBUUIgVjFZa3YyRmlYSUV0WlBHQUNSaERDTmhDRmcrWWdER0VnSVh6L1VJK1V3S0dwVXAwcDY5YjlCNVlaOWxlWjByQXNOUVUzUXV1d01LWiBUaDl3L3dBeGdhYm9YaEN3Y0tZRURFdE4wYjBnWU9GTUNSaVdtcUo3d1Qyd2NLWUVERXROMGIzZ0NpeWM2ZlFCTjh3RjgybUs3Z1VCIEMyZEt3TERVRk4wTFBrSUxaeG85NE1xTDRleWo4L1J4QlJiT2xJQmg2YVB6OUJHd2NLWUVERXNmbmFlUGdJVXpKV0JZK3VnOWZSL04gOHU3MTNBTWZMRXJEVUFrWVA2WGUwL2ZSTE85ZTM3QTlYeEh3MFZTdmYvVDhKQXJtVW5reG5LWGUwL2ZSTE85ZTM3QTlYeEh3MFZTdiBmL1Q4SkFxMlFPWEZjSFo5OWk1T1grV0YxYjNhc0QxZkVmRFJWSzkvOVB3a0NzNWs1Y1Z3ZG4zMkxvcW92TEM2VjdrSFBsaVVocUVTIE1INjZQbnVHQVRkc3oxY0VmRFRWNng4dEkxdWc4bUk0dXo1N0YwVlVTcWp1MVlidCtZcUFqNlo2L2FObFpBdFVYZ3huMTJmdnFvaVAgVm5uMzhvYnQrWXFBajZaNi9hTmxaQXRVWGd4bjEyZnZxb2hLQ3JXOXlqM3d3YUkwREpXQThkUDEyV3Y3RDdRMzdkV0c3U2svQmdGMyBOSmhHWGd4bmxRM2Q5Ri9XSU9DRG1SSXdMRlUydEYzQWZJUStXSlNHb1JJd2ZxcHNhSzdBeCtRekpXQllxbXhvQWo0bW4rbjhBUSs5IEdNNHFHNXFBajhsblNzQ3dWTm5RM0FNZms4K1VnR0dwc3FHNUFoK1R6NVNBWWFteW9RbjRtSHltQkF4TGxRMU53TWZrTXlWZ1dPcisgNzR1MnYxZHUrR0VDSm1CSTFBTE9ldSsxZjZ1RzdTay9CZ0YzTkRqMFlqZ2o0QjNwVk9VekpXQllJdUFkNlZUbE15VmdXQ0xnSGVsVSA1VE1sWUZpcUJWejAzaXZ2ZnJoaGU4cVBRY0FkNTNEb3hmQjJ2YjhJdUdmVlhtZEt3REIxdmIvc0F1WnJwSU5GYVJncUFlT1g2LzNGIEZiaG4xVjVuU3NBd2RiMi9tdjQvZFFqNFlLWUVERlBYKzR1QWUxYnRkYVlFREZQWCs4c3VZTzZCRHhhbFlhZ0VqRit1OXhkWDRKNVYgZTUwcEFjTlV1dDVnTGYrYWdZQVBaa3JBTUpXdU54Z0JINUxQbElCaEtsMXZNTE9BdVFjK1dKU0dvUkl3ZmtuWEc0d3I4Q0g1VEFrWSBwdEwxQm12NTF3d0VmREJUQW9hcHlvNDJDNWlQMExYbHZSNHFBZU9YeW81dU9ZRmNnUTltU3NBd1ZkblJCSHhJUGxNQ2hxbktqaWJnIFEvS1pFakJNVlhaMHk1OWljUTk4TUZNQ2hxbktqallMdUdGN3lvOUJ3QjBORHIwWTNtci9uem9FZkVRK1V3S0dxVnJBRFgvSlFjQUggTXlWZ21QSUttSHZnZzBWcEdDb0I0eGV1d0QyVGxjK1VnR0dxR25EV2VxdjlHelZzVC9reENMaWp3YUVYdzkxSFJSYS9Fd0VmekpTQSBZZXVqSW92ZmlYdmdnNWtTTUd4OVZCVHhPM0VGUHBncEFjUFdSMFVSdnhNQkg4eVVnR0VyWGUrd2hyL2s0Q1Awd1V3SkdMYlM5UTZ6IENyaGhlOHFQUWNBZERRNjlHTzdTUjRYNG5RajRZS1lFREZ2cG8wTDhUZ1I4TU5QNUEwNGpMNGE3eXBhMkNwaDc0SU5GYVJncUFlTzMgeXBadStDS1lLL0RCVEtNSExENzdjRkxaMGdSOFJENVRBb2F0eXBadStCQkZ3QWN6SldEWXF2NXJocUwwVHJuaGh3bVlnQ0hqRkhERCA5cFFmZzRBN1RtRHFIU0NtUU1BdnBGT1Z6NVNBWWFzYXNQaFBzUWo0WUtZRURHTWZGVFlCY3c5YzYrTjZxQVNNUHo1cXBHL0VGZmhnIHBnUU1ZeDgxV2ZoR0JId3dVd0tHc2VzVDJIQU8rUWg5TUZNQ2hySHJFMWpmQUg5eEJUNllLUUhEMlBVSnJHK0F2d2o0WUtZRURHUFggSjFDVXhXOEVmRERUK1FQdUhpRG1rRDRxVEFMbUhyald4L1ZRQ1JoL3BJOGE0UnR4QlQ2WWFmU0FXM1lTWEtTUG1peDdJd0krbUNrQiB3MWo2cU1teU55TGdnNWtTTUl4VjluUjlCM3ppSHZoZ3BnUU1ZNVU5WGQ4Qm43Z0NIOHlVZ0dHc3NxZEZYZnhDd0FjekpXQVlxLzU3IFF1bFpKT0NEbVJJd2pQa0V6RDN3d2FJMERKV0E4WWNnNEt6eFJ2czNhZGllOG1NUThKRXlNcGVtclFRWEgxVkY5RDRFZkREVDZRT3UgRExCdEs4SERSNVhzS1JZZm9ROW1HanhnK1gvYURtNCs2a1R2d3hYNFlLWUVER3Zwb3lwTDNvZUFEMlpLd0xDV1BxcXk1SDBJK0dDbSBCQXhyNmFNcVM5NkhlK0NEbVJJd3JGVTJkWDBQL01FVitHQ20wd2ZjZVNJd2o4cW1GcDlIQWo2WUtRSERXbVZUaTNjMkFSL01sSUJoIFRmQ25XUG9CY3c5OHNDZ05ReVZnZkpJRW5NZmZaLzhXbmZ1R2dJK21ldjJqWldCRkNEZ0FTY0JsL0gzeTdvYzc5dzBCSDAzMStrZXYgejkzSWF6R0hqenJKYjJJQ1BwanA5QUduZ2RkaURoOENncmZoSHZoZ3BnUU1jOWZuVUh3bXVRSWZ6SlNBWWU3NkhFcmJJT0NqbVJJdyB6RlYydFhSdjh4SDZZS2JUQi93eDhGck1vYktycTF2dEQ2N0FCek1OSG5EOXJNTmZaVmRMNHlEZ2c1a1NNTXhKdmdnbTRGZnltUkl3IHpJa0NybTl1N29FUFpqcDd3UDNqd3p3K0pITHRYYmdDSDh5VWdHSHZRNkxVM29XQUQyWkt3TEQzSVZKN0Z3SSttQ2tCdzE3NmtNaVYgZCtFZStHQ213UVB1Mms2NFcvcVFxT1hCRmZoZ3BwVkZLYjFESldEOFU5bld3ck5Kd0FjekpXRFlxMnhyMFU2WUllRDZmdHNHWC8rSCBmS2F6QjZ5MElIQWwreUs0ZGhkTXdBY3puVDNncExNZ2NDVU51SXk4Uzk3OWNNUDJiRGhHZGFiYjRPdi9rTSswTXVDTEQvME5LM1Q5IG81ZG5MZlVPRHhPUkJ2d3g4aTU1OThNTjI3UGhHTldaYm9Pdi8wTStVd0tHUFhIQVplQmRjc01QOXdhYzN5cXV0L29EQSs0ZUhtYnkgSVhYMUpoTmNnZk5ieGZWaENWZytQTXprUTZwY3ZBa0JINHlpOXVHbWQ2aEtBZmYvZnNGTTBvZlV4WnRNRUhDcFRmVDZzQVFzUFErWSBTL3FRdWppbEU5d0RsOXBFcjdmNjh3S3VyRWQxUFRHSHlubVU3YmdKcnNEVkswWmxvdEwxa3MrMEZuQStQVWJEQ2wzL2FPbGZqNnVYIFlpS1Y4eWhyaElBUFpqcDV3T21qKzZXWWlQaDdwS3RJS25Ia2hoL3VEYmhhNERiMjhrL3ltUkl3YnRBUzhObFpyYlNoY3c5Y2UxNWUgbStnMjluTFpLRjVuV2x2WmNucU02NkVxQmR3OU9zemxvMFU1ZW9ldDlxcmM4T1BkQWVlM2E1VlI2aXpYNnlEbURyai84d0htOHRHayBmSHU5NEJLZWR5OW8ySjR0QTgxdjE2NFA2eEJ3NzB3SkdLL1NSNXU4ZS9XbS9SSUNibnBjZHoycjByMGNCQnhHN1V3cXlBMEg3QTY0IDloaTZNay9wY2pYTXRMWXNKMGRvQ3I4eXEveDJwbk53bU01V081WGpjc01CSHhSd1BqNUM3WVMwQk55OW1nUWNSdE5qNkQ1NWQ4RHIgUFdlMjViYWhWd3RIa2VVL2V2b0J0L2F5bG9CUEw4SFZzMjY1NWFEcDlvQ052a2FxM2JWVnRycDB1UnJHVUJ2dzhWUzNwcGZWZnZwcyBPYXRITWQ1MTBGTTdsZVB5N25qWGU2Yy80TXBuNk1xVzFWbXRMUC9SczJOV1g5VVU4Tm12dGRRMU5zeW91bU9HNWQzeHJ2ZGNmOENWIFBiZU52Rmc2aWl6LzBZL2p1TGJxcTlvQy90RXpEZjR4VWlTcHVtVkc1ZDN4cnZmY1FNRDVjcHFWclM1ZHJZWWhWQWRjZW1iWkdQRHggblhiMXZvbUE0MGoxUFRNbzc0N1hldzljSGVmMXBxdHNkZWxxTmN5MHVpNEhBOTZxTDJvTitIQlZxaThqNERnRWUyWlFiamplUU1BZiBJOU9VcmxiRFRPc0wwL3IyMzFkb3EvOThhWjdGQndGSFl2OFlPdStPZDczblJnSXVWOU9zYkhYcGFqWE10RDdnL1BYZDZ5OXBEL2pnIDFxSit5aStYRWxOWkorREx5MFpscTB0WHEyR205UUdYdGpFZXpGTDBpbzZsTEc4SVE3SUhodVRkNGN6dWdZZitIeWgwRm1zM1U4R0EgOSs4dCsxWGFIdkRYeVFsZWRMV1NtSXhvRDR6SXU4TmRiNStoZ0s4eTNMcGYyYkJZdTVrS0JsdzZUa1JId0tWbERrZXZ3TXdrWlF6SiB1OE5kNzdteGdMdi9uK0tjQXQ2OVFMaWFIUUczdjZZNDdVVjBFRzZDZm5sM3VONlAwTUpobG44L1hCcGVMbDJzaHBtbWxzV1JuNFNlIGdGOFdvKzJuRVlCOEUzVEtEWWNiRHJoenEwc1hxMkdtU1RqTS8yMTdqdGdaY0pzc1hRLzRzOW9FSjd2aCtuQ2FBWDgwdkZ5NldBMHogTlZwWEFzYWUrZmRJZVhlNDZ6Mm5HbkNXdjF5NldBMHo3Uml3QkFIakM2Tk5jTEliak8rQnp3NWNlYm5PV3VYQkFVc1FNTDR3MmdRbiB1K0Y2ejZrR1hPUXYxMW1yUERoZ2lWc0M5dDZTYUpHTWRzR252RHZhOVo3ci9zOC9IQ25pd3hKdzMzSmdCbGE3NEZOdU9Cb0IxeEF3IHZyRGFCWi95N21pOTk4RGhBalo2T0hoSHdQeGpwRkNzSDBQbjNkR3U5eHdCMXhBd3ZyTFpCWC9sM2NHdTl4d0IxeEF3dnJMWkJYL2wgM2NHdTk5d1B6VkVXOFdFSitIVGhNTDlrc3cwKzVkM0JldStCd3dWczlIdVJnUEdWMFRiNGxCc09Sc0ExQkl5dmpKOWk1ZDNCcnZjYyBBZGZjRVhDV0xnZm1ZTE1OanJkRDkwZm8xSHpnOHZMcXlsYlhXYW5jOExPOUNCamZKSnQ5Y0xnZHJ2ZmNTZ0hick9vZEFYdnZSelF5IDJnZC81SVpqRVhBTkFlTWJvMzN3UjI0NDFnL05RUmI1cTZVcjFUTFRaTEthTndUTTE4RFIyRDdGeWczSEl1QWFBc1ozSnZ2Z1U5NGQgNm5yUHJSUncrNEFsQ0JqZm1leURUM2wzcU9zOVI4QTFOd1JjcEt1QldaanNnMDk1ZDZqclBYY1JjUHZuL0NJK0xBR2ZyUnRDU0NZYiA0WSs4TzFUM1BUQUJmMThobTBNVTZXcGdGalliNFkvY2NDZ0NycmtoNEN4ZERjekM5REYwM2gzcWVzOWRQVDlwUG5BUkg1YUF6NmVCIENFdzJ3dUYrdU41ekt3VnM4MXZ4aG9DOU55UGFKWk9kOEZ2ZUhhbjdIcGlBdjYvUU52eDJJNHVCZVNTVG5mQmIzaDNwZXMvOTBCeGogRVIrV2dNK09nQmdzYjRMejdralhlMjZsZ0czdVMrd0RMdExGd0VSTU50dlJ0dTcvQ04yOFc0djh4VHJMbEZ0K3VCTUI0MGd5MlcwSCAyL3A2enkwVnNNbWEyZ2VjcFl1QmlaaHNoYU1OY1gwZ0FxNGhZQnd4dkFuT3V3TmQ3emtDcmlGZ0hMTFlDa2Nib3Y4ZXVQbDNUSGw1IGNXV3I2NnpTZnFZM1BDTTJPWUwzVGtTWFpMRVhEcmIxOVo0ajRCb0N4aUdUdlhDd3JhK1BzMVRBSnJjbEJJeERKbnZoWUZ0ZkgrZnkgandoYUQxemswNU91VXN0TWd3Yk0zM0hFWlBjVUt6Y2NoNEJyQ0JqSExIYmJ3YmErM25PWHV5YzFIcmlJRDJzVHNNbVNtZ2RjcEd1QiB1U1NMN2ZaOVcxL3ZPUUt1SVdBY3M5Z01COXY2K2pBL05FZFk1SytWTGxMTFRHMStKNW9IbktWcmdibVkzUVRuaHNNUWNBMEI0NFRGIGR2dStJNjczM0dYQXJiOWlpdml3UmdGWER0ckZQR0R2YlloZUZydmgrN2ErUHNyMUk5REdBeGY1NUtScjFESlRtdzgxMWdIekVEb3MgcTgvUXVlRW9CRnhqSFhDUkxnV21rd3oyMjRmbUZiaHhnRVY4V0tPQUxSNURFekRPR0d5SDc5djYraUEvTkFkWTVDK1ZMbEhMVE45TSBmaVZhQjV5bFM0SHBHSDJHenJ1RFhPODVBcTZ4RHRoN0UyS0EvbmI0dnExSDdvRWJmOE9VbDVkV3Ryck9DdVd2UDE0NWFnOEN4cW1rIHZ4OCtOSy9BQkd3ZU1BK2hJelBZYngrYUFUZCtSQ2p5cVVsWHFHV21ieVkzSmNZQkYrbEtZRUkyTjhGNWQ0enJQVmNKT0hWdnhzcFcgbDY1UXkwenJQOStEZ0hGT2Y3OTlhTjRERTdCNXdGbTRFSmhTMHQ5d3FsZmd0ZzFiNUsrVUxsRHI3dGRmVU9PQXZYY2docGg4aHQ0ZiA0bnJQL2RBY1h4RWZsb0NQM2gzeHFPKzNEd0xXUmNDNG9MNGp2dTJKb1h2Z3RsOHdSVDR4NmZwY3YwdStZVDF0QXk3Q2RjQ3MxRGRjIDIvL1hhaTNnMUxzYksxdGRaM2x5NndzNjJBYWNaY3VBYWFsdmlZK21BOVFDYmhwZWtiOVF1anpOMjE5OU9XMEQ5dDUrR0tYK0dLczAgSFdDNWdKUDJlaEl3TGxsdmllczlWd3U0NmZkTEVSL1dMdURLY2R0SkF2Nmg4dVlJS1JudXQ1KzJ0aC8vcXVYWVJYeFl1NERWUDlHSSBBazZkYjE1a3E0Q0pLZSs0L1BYOXQ4c2Zyd2Jjc2pXTCtMQjJBYXQvb2hFRnZMVzhZMlVDQ0tZbGticHZiejkyRDl6MGtiVElYeWRkIG5QYjkzNzkweHgrRVJRSDMvaGIyM250UTBKSklmUk0ydm4wMTRKYXRXZVN6a2k3TzlidmtnMWVrN3JVcjlSVTZtZFdQemw4YjNBSXYgb1h2SGliYjBkdm56OVMzVVVvRDRzSVlCVnc1OE5hYjZDcDI4K1kvT294YlJHbUJ5cVh2TFhlKzIzN2JXRi9TUHJvZ1BheGh3OXpPRiBIeU1COXgwMWk5WUFrMU44akpWYjM3MGU4Q1k3OGs5Ri9qTHAyblFFMEw5MjlSVTZtZFdQenQvQzNqc1BPcnBPZm5Xei9iRTF2Mkt2IDRkZExFUi9XTXVETzFmenhOaFJ3WmI2ZGk0OFFlazYrZUVOZnY3bGdEOGtQWCtSemtpNU4rM3g3VjdPY3BDOE11T2RqVkJFc0FDTG8gMjNMWGUrM1QxdjZTdlNRNjl0Y05lWDFZeTRBNzcwamVCZ0l1VGN0MFBYd0VwSFFYZlBqZTIrVkxCQUhMQjFmRWg3VU11Tzh6ZEg0YiBETGo5SFBJSmVoMWI4OWsvMlVhdGJ5M1pSRjBEcU14SXVqRFg3NUxWRnZQWE9xVHFDcDI4ZFRsOXRYUzVFRnpIbnJ2Y2FmOXNQUy9hIEVlL01JajZzYWNBOW4yZnk2VVRGQVZkbUxCMDlRaEpIMHJ3ZnJ2ZVZKR0R4eml6eUYwblhwV3ZLN1d2MzQvd2tpQU51UHF6UFRvT04gOWsxM3RkRmVqSDRQM0RDMjh2S2E3ZnBIZFpZbEg3K29jdXpUTjByVkZUcDU1OUp6MlBLR2hhUzJzeTlQNG5wYmlRS1dqcTJJRDJzYiBjUE5uNkI4WDg1UUVuQ1dERlE0ZU1ZMCtpUDdSOThhaWdLVmpLeSt2MmE1L1ZMb3NmUTJreHNYTEZ5OXJDTGd5NTg0bFFBeXRtMDY2IEhSUUNsbDVheXN0TEtwdFp1aXJYNzVKUFh0VlcwdC9SSEo2Q2hvQzcvOThQc0lMR1RTZmREaG9CQzRNbzhwZm9MRXJXV2N2UGNhZnEgQ3AzTUtsKzlRZXZZRVpTd2trTVhIV29FTEF5aXlHY2pYWlRPQ0ZwSytqZVl3MWUxQk54d0g4UmZjYXluYmRlSmU5RFlSN0tobFpkWCBiTmMvS2wyVDYzZkpaeStySFAza1hRNWZWUVR2MjNFS3l4dFcwLzhjcTF5OXJjWStrZ1ZSNUsrUXJva3d2Y2JYN2Z6N0hYWTQ1dDBLIG5aeWlqbE40UG5TRWxScTJuVHlIeTFjVzRkQkV3M2g5TTVWUDd2MEJOeXpsdnhkdDFSV3FCU3crTHArZ2x5VGZkY0o5WEgzVExCcVggOEJKY1hsNmdGUEIxRU9lajcvb1hHRnZsZno5NzI5ZlpxSnd5Qk5YM0licGN2K2xsQTFrNnRPWmRPVEprNGVBL3VsOTQvQjZIeTc5ZiBvY08zZUExNEV4MlVDL0NxeFB0T3ZoZmVSMTc4VDFzTFdyODNMbitsWFk2K3A2VHFwSTVubFZ1UFM3L3JrbmJiME1KRlNrVStzUHFuIGd4L2luMWY2dlpHN1gzbVM1MEY4WDFib3ZmNG02YU9xZnM0UWxucS9WMitwT3JBaS92a2lQK3AyL2k2Vlh3T0NrTDZ1M252MUo0N2UgOWV0c3FrZmxBcnl5dHZ2Z01zL0FwdHVXOWRYN051U2ZlZjZmSC8vOUgvLzlQLy81bi8vM3Z6cVB1OVVPbTcxWEJwWjYvMXNJNWlvYiBNM3N2WFB0Q0doMDRCZnROQjEzeWdtL2VDcGNiTTNzdjIzZTFTNkhaa0YxK2JXQWFQZjk4N3hZempVWGkrbEtZelk3NzduTllUR1BPIGZpODJadlplc2NieFdpL2ZUR2NORGdUOVpvZGh2UWZibFJjRjI5NSt2UHNjRnROSU0vYjdkdktieFdrc0FxY2hGWjhEMCs5aktQMHggc2JxWnh0STMzcHMrTXN4MTJuQy9pNHR3ZGh6VysvMHRERGxheGx2R3ZQa2NGdlBZUGc3bGlZWVY0SnJ5L2JQTVhVZDJPaXdtTWwrKyByK01xM3NPUWVYZGJ3RkMvNlFBQUFBQUFBQUFBQUFBQUFBQUFBQUFBQUFBQUFBQUFBQUFBQUFBQUFBQUFBQUFBQUFBQUFBQUFBQUFBIEFBQUFBQUFBQUFBQUFBQUFBQUFBQUFBQUFBQUFBQUFBQUFBQUFBQUFBQUFBQUFBQUFBQUFBQUFBQUFBQUFBQUFBQUFBQUFBQUFBQUEgQUFBQUFBQUFBQUFBQUFBQUFBQUFBQUFBQUFBQUFBQUFBQUFBQUFBQXVObi9BOVRnQVRFSm90SzFBQUFBSlhSRldIUmtZWFJsT21OeSBaV0YwWlFBeU1ESXlMVEV5TFRJNFZERXlPakF6T2pFd0t6QXdPakF3VHY1eTdRQUFBQ1YwUlZoMFpHRjBaVHB0YjJScFpua0FNakF5IE1pMHhNaTB5T0ZReE1qb3dNem94TUNzd01Eb3dNRCtqeWxFQUFBQW9kRVZZZEdSaGRHVTZkR2x0WlhOMFlXMXdBREl3TWpJdE1USXQgTWpoVU1USTZNRE02TVRBck1EQTZNREJvdHV1T0FBQUFBRWxGVGtTdVFtQ0MiIHk9IjAiIHg9IjAiIGhlaWdodD0iMjE2MCIgd2lkdGg9IjM4NDAiIGlkPSJpbWFnZTAiLz4mI3hhOzwvc3ZnPg==;" vertex="1" parent="1">
          <mxGeometry x="160" y="230" width="160" height="90" as="geometry" />
        </mxCell>
        <mxCell id="-R4bEcD_zmkKEqSJjSrt-3" value="" style="endArrow=classic;html=1;rounded=0;entryX=0.188;entryY=0.5;entryDx=0;entryDy=0;entryPerimeter=0;" edge="1" parent="1" target="-R4bEcD_zmkKEqSJjSrt-2">
          <mxGeometry width="50" height="50" relative="1" as="geometry">
            <mxPoint x="98" y="275" as="sourcePoint" />
            <mxPoint x="450" y="290" as="targetPoint" />
          </mxGeometry>
        </mxCell>
        <mxCell id="-R4bEcD_zmkKEqSJjSrt-4" value="" style="shape=image;verticalLabelPosition=bottom;labelBackgroundColor=default;verticalAlign=top;aspect=fixed;imageAspect=0;image=https://www.shutterstock.com/image-vector/computer-icon-vector-illustration-pc-260nw-1518554801.jpg;clipPath=inset(17.5% 13.85% 22.14% 13.08%);" vertex="1" parent="1">
          <mxGeometry x="10" y="235.77" width="88.22" height="78.46936842105264" as="geometry" />
        </mxCell>
        <mxCell id="-R4bEcD_zmkKEqSJjSrt-5" value="Local PC" style="text;html=1;strokeColor=none;fillColor=none;align=center;verticalAlign=middle;whiteSpace=wrap;rounded=0;" vertex="1" parent="1">
          <mxGeometry x="24.110000000000014" y="330" width="60" height="30" as="geometry" />
        </mxCell>
        <mxCell id="-R4bEcD_zmkKEqSJjSrt-42" value="" style="edgeStyle=orthogonalEdgeStyle;rounded=0;orthogonalLoop=1;jettySize=auto;html=1;entryX=0.5;entryY=0;entryDx=0;entryDy=0;" edge="1" parent="1" source="-R4bEcD_zmkKEqSJjSrt-7" target="-R4bEcD_zmkKEqSJjSrt-1">
          <mxGeometry relative="1" as="geometry" />
        </mxCell>
        <mxCell id="-R4bEcD_zmkKEqSJjSrt-7" value="" style="shape=image;verticalLabelPosition=bottom;labelBackgroundColor=default;verticalAlign=top;aspect=fixed;imageAspect=0;image=https://logowik.com/content/uploads/images/circleci8026.jpg;" vertex="1" parent="1">
          <mxGeometry x="404.5" y="236.69" width="111" height="83.31" as="geometry" />
        </mxCell>
        <mxCell id="-R4bEcD_zmkKEqSJjSrt-9" value="" style="endArrow=classic;html=1;rounded=0;entryX=0.188;entryY=0.5;entryDx=0;entryDy=0;entryPerimeter=0;" edge="1" parent="1">
          <mxGeometry width="50" height="50" relative="1" as="geometry">
            <mxPoint x="308" y="274.5" as="sourcePoint" />
            <mxPoint x="400" y="274.5" as="targetPoint" />
          </mxGeometry>
        </mxCell>
        <mxCell id="-R4bEcD_zmkKEqSJjSrt-13" value="Install node" style="rounded=0;whiteSpace=wrap;html=1;" vertex="1" parent="1">
          <mxGeometry x="400" y="480" width="120" height="30" as="geometry" />
        </mxCell>
        <mxCell id="-R4bEcD_zmkKEqSJjSrt-14" value="Install front-end dependencies" style="rounded=0;whiteSpace=wrap;html=1;" vertex="1" parent="1">
          <mxGeometry x="400" y="530" width="120" height="30" as="geometry" />
        </mxCell>
        <mxCell id="-R4bEcD_zmkKEqSJjSrt-30" value="" style="edgeStyle=orthogonalEdgeStyle;rounded=0;orthogonalLoop=1;jettySize=auto;html=1;" edge="1" parent="1" source="-R4bEcD_zmkKEqSJjSrt-15">
          <mxGeometry relative="1" as="geometry">
            <mxPoint x="460" y="480" as="targetPoint" />
          </mxGeometry>
        </mxCell>
        <mxCell id="-R4bEcD_zmkKEqSJjSrt-15" value="Set up environment variables" style="rounded=0;whiteSpace=wrap;html=1;" vertex="1" parent="1">
          <mxGeometry x="400" y="430" width="120" height="30" as="geometry" />
        </mxCell>
        <mxCell id="-R4bEcD_zmkKEqSJjSrt-16" value="Install api dependencies" style="rounded=0;whiteSpace=wrap;html=1;" vertex="1" parent="1">
          <mxGeometry x="400" y="580" width="120" height="30" as="geometry" />
        </mxCell>
        <mxCell id="-R4bEcD_zmkKEqSJjSrt-17" value="Run front-end lint" style="rounded=0;whiteSpace=wrap;html=1;" vertex="1" parent="1">
          <mxGeometry x="400" y="630" width="120" height="30" as="geometry" />
        </mxCell>
        <mxCell id="-R4bEcD_zmkKEqSJjSrt-18" value="Build front-end" style="rounded=0;whiteSpace=wrap;html=1;" vertex="1" parent="1">
          <mxGeometry x="400" y="680" width="120" height="30" as="geometry" />
        </mxCell>
        <mxCell id="-R4bEcD_zmkKEqSJjSrt-19" value="Build api" style="rounded=0;whiteSpace=wrap;html=1;" vertex="1" parent="1">
          <mxGeometry x="400" y="730" width="120" height="30" as="geometry" />
        </mxCell>
        <mxCell id="-R4bEcD_zmkKEqSJjSrt-20" value="Manual approve" style="rounded=0;whiteSpace=wrap;html=1;" vertex="1" parent="1">
          <mxGeometry x="570" y="430" width="120" height="30" as="geometry" />
        </mxCell>
        <mxCell id="-R4bEcD_zmkKEqSJjSrt-21" value="Setting EB CLI" style="rounded=0;whiteSpace=wrap;html=1;" vertex="1" parent="1">
          <mxGeometry x="742.25" y="430" width="120" height="30" as="geometry" />
        </mxCell>
        <mxCell id="-R4bEcD_zmkKEqSJjSrt-22" value="Install AWS CLI" style="rounded=0;whiteSpace=wrap;html=1;" vertex="1" parent="1">
          <mxGeometry x="742.25" y="480" width="120" height="30" as="geometry" />
        </mxCell>
        <mxCell id="-R4bEcD_zmkKEqSJjSrt-23" value="Config AWS access key" style="rounded=0;whiteSpace=wrap;html=1;" vertex="1" parent="1">
          <mxGeometry x="742.25" y="530" width="120" height="30" as="geometry" />
        </mxCell>
        <mxCell id="-R4bEcD_zmkKEqSJjSrt-24" value="Deploy app" style="rounded=0;whiteSpace=wrap;html=1;" vertex="1" parent="1">
          <mxGeometry x="742.25" y="580" width="120" height="30" as="geometry" />
        </mxCell>
        <mxCell id="-R4bEcD_zmkKEqSJjSrt-36" value="" style="edgeStyle=orthogonalEdgeStyle;rounded=0;orthogonalLoop=1;jettySize=auto;html=1;" edge="1" parent="1" source="-R4bEcD_zmkKEqSJjSrt-26" target="-R4bEcD_zmkKEqSJjSrt-20">
          <mxGeometry relative="1" as="geometry" />
        </mxCell>
        <mxCell id="-R4bEcD_zmkKEqSJjSrt-26" value="Hold" style="rounded=1;whiteSpace=wrap;html=1;" vertex="1" parent="1">
          <mxGeometry x="557.75" y="352.5" width="144.5" height="45" as="geometry" />
        </mxCell>
        <mxCell id="-R4bEcD_zmkKEqSJjSrt-37" value="" style="edgeStyle=orthogonalEdgeStyle;rounded=0;orthogonalLoop=1;jettySize=auto;html=1;" edge="1" parent="1" source="-R4bEcD_zmkKEqSJjSrt-27">
          <mxGeometry relative="1" as="geometry">
            <mxPoint x="802" y="430" as="targetPoint" />
          </mxGeometry>
        </mxCell>
        <mxCell id="-R4bEcD_zmkKEqSJjSrt-27" value="Deploy" style="rounded=1;whiteSpace=wrap;html=1;" vertex="1" parent="1">
          <mxGeometry x="730" y="352.5" width="144.5" height="45" as="geometry" />
        </mxCell>
        <mxCell id="-R4bEcD_zmkKEqSJjSrt-31" value="" style="edgeStyle=orthogonalEdgeStyle;rounded=0;orthogonalLoop=1;jettySize=auto;html=1;" edge="1" parent="1">
          <mxGeometry relative="1" as="geometry">
            <mxPoint x="459.5" y="510" as="sourcePoint" />
            <mxPoint x="459.5" y="530" as="targetPoint" />
          </mxGeometry>
        </mxCell>
        <mxCell id="-R4bEcD_zmkKEqSJjSrt-32" value="" style="edgeStyle=orthogonalEdgeStyle;rounded=0;orthogonalLoop=1;jettySize=auto;html=1;" edge="1" parent="1">
          <mxGeometry relative="1" as="geometry">
            <mxPoint x="459.5" y="560" as="sourcePoint" />
            <mxPoint x="459.5" y="580" as="targetPoint" />
          </mxGeometry>
        </mxCell>
        <mxCell id="-R4bEcD_zmkKEqSJjSrt-33" value="" style="edgeStyle=orthogonalEdgeStyle;rounded=0;orthogonalLoop=1;jettySize=auto;html=1;" edge="1" parent="1">
          <mxGeometry relative="1" as="geometry">
            <mxPoint x="459.5" y="610" as="sourcePoint" />
            <mxPoint x="459.5" y="630" as="targetPoint" />
          </mxGeometry>
        </mxCell>
        <mxCell id="-R4bEcD_zmkKEqSJjSrt-34" value="" style="edgeStyle=orthogonalEdgeStyle;rounded=0;orthogonalLoop=1;jettySize=auto;html=1;" edge="1" parent="1">
          <mxGeometry relative="1" as="geometry">
            <mxPoint x="459.5" y="660" as="sourcePoint" />
            <mxPoint x="459.5" y="680" as="targetPoint" />
          </mxGeometry>
        </mxCell>
        <mxCell id="-R4bEcD_zmkKEqSJjSrt-35" value="" style="edgeStyle=orthogonalEdgeStyle;rounded=0;orthogonalLoop=1;jettySize=auto;html=1;" edge="1" parent="1">
          <mxGeometry relative="1" as="geometry">
            <mxPoint x="459.5" y="710" as="sourcePoint" />
            <mxPoint x="459.5" y="730" as="targetPoint" />
          </mxGeometry>
        </mxCell>
        <mxCell id="-R4bEcD_zmkKEqSJjSrt-38" value="" style="edgeStyle=orthogonalEdgeStyle;rounded=0;orthogonalLoop=1;jettySize=auto;html=1;" edge="1" parent="1">
          <mxGeometry relative="1" as="geometry">
            <mxPoint x="801.75" y="460" as="sourcePoint" />
            <mxPoint x="801.75" y="480" as="targetPoint" />
          </mxGeometry>
        </mxCell>
        <mxCell id="-R4bEcD_zmkKEqSJjSrt-39" value="" style="edgeStyle=orthogonalEdgeStyle;rounded=0;orthogonalLoop=1;jettySize=auto;html=1;" edge="1" parent="1">
          <mxGeometry relative="1" as="geometry">
            <mxPoint x="801.75" y="510" as="sourcePoint" />
            <mxPoint x="801.75" y="530" as="targetPoint" />
          </mxGeometry>
        </mxCell>
        <mxCell id="-R4bEcD_zmkKEqSJjSrt-40" value="" style="edgeStyle=orthogonalEdgeStyle;rounded=0;orthogonalLoop=1;jettySize=auto;html=1;" edge="1" parent="1">
          <mxGeometry relative="1" as="geometry">
            <mxPoint x="801.75" y="560" as="sourcePoint" />
            <mxPoint x="801.75" y="580" as="targetPoint" />
          </mxGeometry>
        </mxCell>
        <mxCell id="-R4bEcD_zmkKEqSJjSrt-44" value="Push code" style="text;html=1;strokeColor=none;fillColor=none;align=center;verticalAlign=middle;whiteSpace=wrap;rounded=0;" vertex="1" parent="1">
          <mxGeometry x="110" y="240" width="60" height="30" as="geometry" />
        </mxCell>
        <mxCell id="-R4bEcD_zmkKEqSJjSrt-45" value="Trigger" style="text;html=1;strokeColor=none;fillColor=none;align=center;verticalAlign=middle;whiteSpace=wrap;rounded=0;" vertex="1" parent="1">
          <mxGeometry x="310" y="235.77" width="60" height="30" as="geometry" />
        </mxCell>
      </root>
    </mxGraphModel>
  </diagram>
</mxfile>
